<?xml version="1.0" encoding="us-ascii" standalone="no"?><svg xmlns="http://www.w3.org/2000/svg" xmlns:xlink="http://www.w3.org/1999/xlink" contentStyleType="text/css" height="636.6px" preserveAspectRatio="none" style="width:432px;height:636px;background:#FFFFFF;" version="1.1" viewBox="0 0 432 636" width="432px" zoomAndPan="magnify"><defs/><g><text fill="#000000" font-family="sans-serif" font-size="8.4" font-weight="bold" lengthAdjust="spacing" textLength="64.8" x="179.4" y="15.0645">&#1071;&#1085;&#1076;&#1077;&#1082;&#1089;-&#1052;&#1072;&#1088;&#1082;&#1077;&#1090;</text><!--class User--><g id="elem_User"><rect codeLine="6" fill="#F1F1F1" height="116.1539" id="User" rx="1.5" ry="1.5" style="stroke:#181818;stroke-width:0.3;" width="145.2" x="93.9" y="27.9727"/><text fill="#000000" font-family="sans-serif" font-size="8.4" lengthAdjust="spacing" textLength="17.4" x="157.8" y="40.0371">User</text><line style="stroke:#181818;stroke-width:0.3;" x1="94.5" x2="238.5" y1="45.1453" y2="45.1453"/><text fill="#000000" font-family="sans-serif" font-size="8.4" lengthAdjust="spacing" textLength="138" x="97.5" y="56.6098">user_id UUID SERIAL PRIMARY KEY</text><line style="stroke:#181818;stroke-width:0.6;" x1="94.5" x2="238.5" y1="61.118" y2="61.118"/><text fill="#000000" font-family="sans-serif" font-size="8.4" lengthAdjust="spacing" textLength="79.8" x="97.5" y="72.5824">username VARCHAR</text><text fill="#000000" font-family="sans-serif" font-size="8.4" lengthAdjust="spacing" textLength="76.8" x="97.5" y="83.7551">password CHKPASS</text><text fill="#000000" font-family="sans-serif" font-size="8.4" lengthAdjust="spacing" textLength="63" x="97.5" y="94.9277">name VARCHAR</text><text fill="#000000" font-family="sans-serif" font-size="8.4" lengthAdjust="spacing" textLength="75" x="97.5" y="106.1004">surname VARCHAR</text><text fill="#000000" font-family="sans-serif" font-size="8.4" lengthAdjust="spacing" textLength="99.6" x="97.5" y="117.273">phone_number VARCHAR</text><text fill="#000000" font-family="sans-serif" font-size="8.4" lengthAdjust="spacing" textLength="72.6" x="97.5" y="128.4457">address VARCHAR</text><text fill="#000000" font-family="sans-serif" font-size="8.4" lengthAdjust="spacing" textLength="102" x="97.5" y="139.6184">plus_subscriber BOOLEAN</text></g><!--class Order--><g id="elem_Order"><rect codeLine="18" fill="#F1F1F1" height="71.4633" id="Order" rx="1.5" ry="1.5" style="stroke:#181818;stroke-width:0.3;" width="148.8" x="92.1" y="180.3727"/><text fill="#000000" font-family="sans-serif" font-size="8.4" lengthAdjust="spacing" textLength="22.2" x="155.4" y="192.4371">Order</text><line style="stroke:#181818;stroke-width:0.3;" x1="92.7" x2="240.3" y1="197.5453" y2="197.5453"/><text fill="#000000" font-family="sans-serif" font-size="8.4" lengthAdjust="spacing" textLength="141.6" x="95.7" y="209.0098">order_id UUID SERIAL PRIMARY KEY</text><line style="stroke:#181818;stroke-width:0.6;" x1="92.7" x2="240.3" y1="213.518" y2="213.518"/><text fill="#000000" font-family="sans-serif" font-size="8.4" lengthAdjust="spacing" textLength="97.8" x="95.7" y="224.9824">user_id (Foreign Key) INT</text><text fill="#000000" font-family="sans-serif" font-size="8.4" lengthAdjust="spacing" textLength="124.8" x="95.7" y="236.1551">order_state_id (Foreign Key) INT</text><text fill="#000000" font-family="sans-serif" font-size="8.4" lengthAdjust="spacing" textLength="99.6" x="95.7" y="247.3277">shop_id (Foreign Key) INT</text></g><!--class Shop--><g id="elem_Shop"><rect codeLine="26" fill="#F1F1F1" height="98.6086" id="Shop" rx="1.5" ry="1.5" style="stroke:#181818;stroke-width:0.3;" width="147" x="4.2" y="287.7727"/><text fill="#000000" font-family="sans-serif" font-size="8.4" lengthAdjust="spacing" textLength="19.8" x="67.8" y="299.8371">Shop</text><line style="stroke:#181818;stroke-width:0.3;" x1="4.8" x2="150.6" y1="304.9453" y2="304.9453"/><text fill="#000000" font-family="sans-serif" font-size="8.4" lengthAdjust="spacing" textLength="139.8" x="7.8" y="316.4098">shop_id UUID SERIAL PRIMARY KEY</text><line style="stroke:#181818;stroke-width:0.6;" x1="4.8" x2="150.6" y1="320.918" y2="320.918"/><text fill="#000000" font-family="sans-serif" font-size="8.4" lengthAdjust="spacing" textLength="63" x="7.8" y="332.3824">name VARCHAR</text><text fill="#000000" font-family="sans-serif" font-size="8.4" lengthAdjust="spacing" textLength="72.6" x="7.8" y="343.5551">address VARCHAR</text><text fill="#000000" font-family="sans-serif" font-size="8.4" lengthAdjust="spacing" textLength="61.8" x="7.8" y="354.7277">email VARCHAR</text><text fill="#000000" font-family="sans-serif" font-size="8.4" lengthAdjust="spacing" textLength="99.6" x="7.8" y="365.9004">phone_number VARCHAR</text><line style="stroke:#181818;stroke-width:0.6;" x1="4.8" x2="150.6" y1="370.4086" y2="370.4086"/><text fill="#000000" font-family="sans-serif" font-size="8.4" lengthAdjust="spacing" textLength="102.6" x="7.8" y="381.873">rating_id (Foreign Key) INT</text></g><!--class OrderUnit--><g id="elem_OrderUnit"><rect codeLine="37" fill="#F1F1F1" height="76.2633" id="OrderUnit" rx="1.5" ry="1.5" style="stroke:#181818;stroke-width:0.3;" width="167.4" x="172.2" y="298.8727"/><text fill="#000000" font-family="sans-serif" font-size="8.4" lengthAdjust="spacing" textLength="36.6" x="237.6" y="310.9371">OrderUnit</text><line style="stroke:#181818;stroke-width:0.3;" x1="172.8" x2="339" y1="316.0453" y2="316.0453"/><text fill="#000000" font-family="sans-serif" font-size="8.4" lengthAdjust="spacing" textLength="160.2" x="175.8" y="327.5098">order_unit_id UUID SERIAL PRIMARY KEY</text><line style="stroke:#181818;stroke-width:0.6;" x1="172.8" x2="339" y1="332.018" y2="332.018"/><text fill="#000000" font-family="sans-serif" font-size="8.4" lengthAdjust="spacing" textLength="43.2" x="175.8" y="343.4824">amount INT</text><line style="stroke:#181818;stroke-width:0.6;" x1="172.8" x2="339" y1="347.9906" y2="347.9906"/><text fill="#000000" font-family="sans-serif" font-size="8.4" lengthAdjust="spacing" textLength="101.4" x="175.8" y="359.4551">order_id (Foreign Key) INT</text><text fill="#000000" font-family="sans-serif" font-size="8.4" lengthAdjust="spacing" textLength="133.2" x="175.8" y="370.6277">shop_product_id (Foreign Key) INT</text></g><!--class Product--><g id="elem_Product"><rect codeLine="46" fill="#F1F1F1" height="98.6086" id="Product" rx="1.5" ry="1.5" style="stroke:#181818;stroke-width:0.3;" width="157.2" x="87.9" y="422.1727"/><text fill="#000000" font-family="sans-serif" font-size="8.4" lengthAdjust="spacing" textLength="29.4" x="151.8" y="434.2371">Product</text><line style="stroke:#181818;stroke-width:0.3;" x1="88.5" x2="244.5" y1="439.3453" y2="439.3453"/><text fill="#000000" font-family="sans-serif" font-size="8.4" lengthAdjust="spacing" textLength="150" x="91.5" y="450.8098">product_id UUID SERIAL PRIMARY KEY</text><line style="stroke:#181818;stroke-width:0.6;" x1="88.5" x2="244.5" y1="455.318" y2="455.318"/><text fill="#000000" font-family="sans-serif" font-size="8.4" lengthAdjust="spacing" textLength="63" x="91.5" y="466.7824">name VARCHAR</text><text fill="#000000" font-family="sans-serif" font-size="8.4" lengthAdjust="spacing" textLength="64.8" x="91.5" y="477.9551">description TEXT</text><text fill="#000000" font-family="sans-serif" font-size="8.4" lengthAdjust="spacing" textLength="57.6" x="91.5" y="489.1277">price NUMERIC</text><line style="stroke:#181818;stroke-width:0.6;" x1="88.5" x2="244.5" y1="493.6359" y2="493.6359"/><text fill="#000000" font-family="sans-serif" font-size="8.4" lengthAdjust="spacing" textLength="147.6" x="91.5" y="505.1004">product_category_id (Foreign Key) INT</text><text fill="#000000" font-family="sans-serif" font-size="8.4" lengthAdjust="spacing" textLength="102.6" x="91.5" y="516.273">rating_id (Foreign Key) INT</text></g><!--class Category--><g id="elem_Category"><rect codeLine="57" fill="#F1F1F1" height="49.118" id="Category" rx="1.5" ry="1.5" style="stroke:#181818;stroke-width:0.3;" width="161.4" x="266.4" y="446.7727"/><text fill="#000000" font-family="sans-serif" font-size="8.4" lengthAdjust="spacing" textLength="34.8" x="329.7" y="458.8371">Category</text><line style="stroke:#181818;stroke-width:0.3;" x1="267" x2="427.2" y1="463.9453" y2="463.9453"/><text fill="#000000" font-family="sans-serif" font-size="8.4" lengthAdjust="spacing" textLength="154.2" x="270" y="475.4098">category_id UUID SERIAL PRIMARY KEY</text><line style="stroke:#181818;stroke-width:0.6;" x1="267" x2="427.2" y1="479.918" y2="479.918"/><text fill="#000000" font-family="sans-serif" font-size="8.4" lengthAdjust="spacing" textLength="44.4" x="270" y="491.3824">name TEXT</text></g><!--class ProductOption--><g id="elem_ProductOption"><rect codeLine="63" fill="#F1F1F1" height="76.2633" id="ProductOption" rx="1.5" ry="1.5" style="stroke:#181818;stroke-width:0.3;" width="185.4" x="163.8" y="556.5727"/><text fill="#000000" font-family="sans-serif" font-size="8.4" lengthAdjust="spacing" textLength="54.6" x="229.2" y="568.6371">ProductOption</text><line style="stroke:#181818;stroke-width:0.3;" x1="164.4" x2="348.6" y1="573.7453" y2="573.7453"/><text fill="#000000" font-family="sans-serif" font-size="8.4" lengthAdjust="spacing" textLength="178.2" x="167.4" y="585.2098">product_option_id UUID SERIAL PRIMARY KEY</text><line style="stroke:#181818;stroke-width:0.6;" x1="164.4" x2="348.6" y1="589.718" y2="589.718"/><text fill="#000000" font-family="sans-serif" font-size="8.4" lengthAdjust="spacing" textLength="43.8" x="167.4" y="601.1824">value TEXT</text><line style="stroke:#181818;stroke-width:0.6;" x1="164.4" x2="348.6" y1="605.6906" y2="605.6906"/><text fill="#000000" font-family="sans-serif" font-size="8.4" lengthAdjust="spacing" textLength="109.8" x="167.4" y="617.1551">product_id (Foreign Key) INT</text><text fill="#000000" font-family="sans-serif" font-size="8.4" lengthAdjust="spacing" textLength="142.2" x="167.4" y="628.3277">category_option_id (Foreign Key) INT</text></g><!--link Product to Category--><g id="link_Product_Category"><path codeLine="73" d="M255.99,471.3727 C262.926,471.3727 254.358,471.3727 261.318,471.3727 " fill="none" id="Product-Category" style="stroke:#181818;stroke-width:0.6;"/><line style="stroke:#181818;stroke-width:0.6;" x1="249.99" x2="245.19" y1="471.3727" y2="474.9727"/><line style="stroke:#181818;stroke-width:0.6;" x1="249.99" x2="245.19" y1="471.3727" y2="467.7727"/><line style="stroke:#181818;stroke-width:0.6;" x1="249.99" x2="245.19" y1="471.3727" y2="471.3727"/><ellipse cx="253.59" cy="471.3727" fill="none" rx="2.4" ry="2.4" style="stroke:#181818;stroke-width:0.6;"/><line style="stroke:#181818;stroke-width:0.6;" x1="263.718" x2="263.718" y1="468.9727" y2="473.7727"/><line style="stroke:#181818;stroke-width:0.6;" x1="261.918" x2="261.918" y1="468.9727" y2="473.7727"/><line style="stroke:#181818;stroke-width:0.6;" x1="261.318" x2="266.118" y1="471.3727" y2="471.3727"/></g><!--link Category to ProductOption--><g id="link_Category_ProductOption"><path codeLine="74" d="M307.8,500.8267 C307.8,518.1187 307.8,525.9667 307.8,545.6587 " fill="none" id="Category-ProductOption" style="stroke:#181818;stroke-width:0.6;"/><line style="stroke:#181818;stroke-width:0.6;" x1="305.4" x2="310.2" y1="498.4267" y2="498.4267"/><line style="stroke:#181818;stroke-width:0.6;" x1="305.4" x2="310.2" y1="500.2267" y2="500.2267"/><line style="stroke:#181818;stroke-width:0.6;" x1="307.8" x2="307.8" y1="500.8267" y2="496.0267"/><line style="stroke:#181818;stroke-width:0.6;" x1="307.8" x2="311.4" y1="551.6587" y2="556.4587"/><line style="stroke:#181818;stroke-width:0.6;" x1="307.8" x2="304.2" y1="551.6587" y2="556.4587"/><line style="stroke:#181818;stroke-width:0.6;" x1="307.8" x2="307.8" y1="551.6587" y2="556.4587"/><ellipse cx="307.8" cy="548.0587" fill="none" rx="2.4" ry="2.4" style="stroke:#181818;stroke-width:0.6;"/></g><!--link ProductOption to Product--><g id="link_ProductOption_Product"><path codeLine="75" d="M204.45,545.7067 C204.45,534.3907 204.45,543.4327 204.45,531.5107 " fill="none" id="ProductOption-Product" style="stroke:#181818;stroke-width:0.6;"/><line style="stroke:#181818;stroke-width:0.6;" x1="204.45" x2="208.05" y1="551.7067" y2="556.5067"/><line style="stroke:#181818;stroke-width:0.6;" x1="204.45" x2="200.85" y1="551.7067" y2="556.5067"/><line style="stroke:#181818;stroke-width:0.6;" x1="204.45" x2="204.45" y1="551.7067" y2="556.5067"/><ellipse cx="204.45" cy="548.1067" fill="none" rx="2.4" ry="2.4" style="stroke:#181818;stroke-width:0.6;"/><line style="stroke:#181818;stroke-width:0.6;" x1="204.45" x2="200.85" y1="525.5107" y2="520.7107"/><line style="stroke:#181818;stroke-width:0.6;" x1="204.45" x2="208.05" y1="525.5107" y2="520.7107"/><line style="stroke:#181818;stroke-width:0.6;" x1="204.45" x2="204.45" y1="525.5107" y2="520.7107"/><ellipse cx="204.45" cy="529.1107" fill="none" rx="2.4" ry="2.4" style="stroke:#181818;stroke-width:0.6;"/></g><!--link Shop to Product--><g id="link_Shop_Product"><path codeLine="76" d="M119.55,391.0567 C119.55,402.7447 119.55,399.6067 119.55,411.2947 " fill="none" id="Shop-Product" style="stroke:#181818;stroke-width:0.6;"/><line style="stroke:#181818;stroke-width:0.6;" x1="117.15" x2="121.95" y1="388.6567" y2="388.6567"/><line style="stroke:#181818;stroke-width:0.6;" x1="117.15" x2="121.95" y1="390.4567" y2="390.4567"/><line style="stroke:#181818;stroke-width:0.6;" x1="119.55" x2="119.55" y1="391.0567" y2="386.2567"/><line style="stroke:#181818;stroke-width:0.6;" x1="119.55" x2="123.15" y1="417.2947" y2="422.0947"/><line style="stroke:#181818;stroke-width:0.6;" x1="119.55" x2="115.95" y1="417.2947" y2="422.0947"/><line style="stroke:#181818;stroke-width:0.6;" x1="119.55" x2="119.55" y1="417.2947" y2="422.0947"/><ellipse cx="119.55" cy="413.6947" fill="none" rx="2.4" ry="2.4" style="stroke:#181818;stroke-width:0.6;"/></g><!--link Order to Shop--><g id="link_Order_Shop"><path codeLine="77" d="M121.65,262.6567 C121.65,273.8647 121.65,270.8407 121.65,282.8167 " fill="none" id="Order-Shop" style="stroke:#181818;stroke-width:0.6;"/><line style="stroke:#181818;stroke-width:0.6;" x1="121.65" x2="118.05" y1="256.6567" y2="251.8567"/><line style="stroke:#181818;stroke-width:0.6;" x1="121.65" x2="125.25" y1="256.6567" y2="251.8567"/><line style="stroke:#181818;stroke-width:0.6;" x1="121.65" x2="121.65" y1="256.6567" y2="251.8567"/><ellipse cx="121.65" cy="260.2567" fill="none" rx="2.4" ry="2.4" style="stroke:#181818;stroke-width:0.6;"/><line style="stroke:#181818;stroke-width:0.6;" x1="124.05" x2="119.25" y1="285.2167" y2="285.2167"/><line style="stroke:#181818;stroke-width:0.6;" x1="124.05" x2="119.25" y1="283.4167" y2="283.4167"/><line style="stroke:#181818;stroke-width:0.6;" x1="121.65" x2="121.65" y1="282.8167" y2="287.6167"/></g><!--link User to Order--><g id="link_User_Order"><path codeLine="78" d="M166.5,149.2747 C166.5,161.4787 166.5,158.4067 166.5,169.4947 " fill="none" id="User-Order" style="stroke:#181818;stroke-width:0.6;"/><line style="stroke:#181818;stroke-width:0.6;" x1="164.1" x2="168.9" y1="146.8747" y2="146.8747"/><line style="stroke:#181818;stroke-width:0.6;" x1="164.1" x2="168.9" y1="148.6747" y2="148.6747"/><line style="stroke:#181818;stroke-width:0.6;" x1="166.5" x2="166.5" y1="149.2747" y2="144.4747"/><line style="stroke:#181818;stroke-width:0.6;" x1="166.5" x2="170.1" y1="175.4947" y2="180.2947"/><line style="stroke:#181818;stroke-width:0.6;" x1="166.5" x2="162.9" y1="175.4947" y2="180.2947"/><line style="stroke:#181818;stroke-width:0.6;" x1="166.5" x2="166.5" y1="175.4947" y2="180.2947"/><ellipse cx="166.5" cy="171.8947" fill="none" rx="2.4" ry="2.4" style="stroke:#181818;stroke-width:0.6;"/></g><!--link Order to OrderUnit--><g id="link_Order_OrderUnit"><path codeLine="79" d="M206.55,256.6567 C206.55,271.4167 206.55,278.9467 206.55,293.9527 " fill="none" id="Order-OrderUnit" style="stroke:#181818;stroke-width:0.6;"/><line style="stroke:#181818;stroke-width:0.6;" x1="204.15" x2="208.95" y1="254.2567" y2="254.2567"/><line style="stroke:#181818;stroke-width:0.6;" x1="204.15" x2="208.95" y1="256.0567" y2="256.0567"/><line style="stroke:#181818;stroke-width:0.6;" x1="206.55" x2="206.55" y1="256.6567" y2="251.8567"/><line style="stroke:#181818;stroke-width:0.6;" x1="206.55" x2="210.15" y1="293.9527" y2="298.7527"/><line style="stroke:#181818;stroke-width:0.6;" x1="206.55" x2="202.95" y1="293.9527" y2="298.7527"/><line style="stroke:#181818;stroke-width:0.6;" x1="206.55" x2="206.55" y1="293.9527" y2="298.7527"/><line style="stroke:#181818;stroke-width:0.6;" x1="208.95" x2="204.15" y1="292.7527" y2="292.7527"/></g><!--link OrderUnit to Product--><g id="link_OrderUnit_Product"><path codeLine="80" d="M208.65,385.9267 C208.65,400.5187 208.65,401.7667 208.65,417.2527 " fill="none" id="OrderUnit-Product" style="stroke:#181818;stroke-width:0.6;"/><line style="stroke:#181818;stroke-width:0.6;" x1="208.65" x2="205.05" y1="379.9267" y2="375.1267"/><line style="stroke:#181818;stroke-width:0.6;" x1="208.65" x2="212.25" y1="379.9267" y2="375.1267"/><line style="stroke:#181818;stroke-width:0.6;" x1="208.65" x2="208.65" y1="379.9267" y2="375.1267"/><ellipse cx="208.65" cy="383.5267" fill="none" rx="2.4" ry="2.4" style="stroke:#181818;stroke-width:0.6;"/><line style="stroke:#181818;stroke-width:0.6;" x1="211.05" x2="206.25" y1="419.6527" y2="419.6527"/><line style="stroke:#181818;stroke-width:0.6;" x1="211.05" x2="206.25" y1="417.8527" y2="417.8527"/><line style="stroke:#181818;stroke-width:0.6;" x1="208.65" x2="208.65" y1="417.2527" y2="422.0527"/></g><!--SRC=[dLHBRjim5Dpp56_PBdG8rN4Hmubjo5RHh0n6Uh28IgJ0JmiZCj3s7Br3ksWs0Ne7-aQXP5cVsaxKQaKCXyEP8KNDT8fWVze_zhTzj4_xRvxzON_jlzed-xZ_JaZ2OeI8oIX5eZundbD9CqWPHxtD4OJKYI04kMPw2w522Gy4t6VSSCrY2CF95Ip7mSI_WKKmkVM3EvYExogEvpLKJZE43tumklQ32iofKb-4Z65qFLtuosK5dh2KERCo4HpNt6JtpantWiQnHANwvDIejJBtAfAivB-Rps_6_epicanp6JUXH3d-XrGbzSrx8P5jE4nn-nOcirL7IMcgyJ999I8_FzlQMpfExUv87s3kfBHptM16MJgisbfMKituvZNBLQCXPxhNgd70GFSq4uRhfgOQRGxdXJ9pAM8JwTSSBWwqsbzdqVzK6sDvkNBD18VL-EEgrcGHmYoyTLgZxlBZPf6x6HiXjvS33IjxLElKMRgoGyDKfa_AcHyIzIiI5JXG_3DD3RQL_5N0nTnDX7QpimMGuodkX2VP9j5UKJHraAQNel0yyT1FHVePdK27GgfVhh-C75w9akWsAGajOl8IAvz6qjxyNL7Z5TITE4WSTPy1]--></g></svg>