<?xml version="1.0" encoding="us-ascii" standalone="no"?><svg xmlns="http://www.w3.org/2000/svg" xmlns:xlink="http://www.w3.org/1999/xlink" contentStyleType="text/css" height="1100px" preserveAspectRatio="none" style="width:720px;height:1100px;background:#FFFFFF;" version="1.1" viewBox="0 0 720 1100" width="720px" zoomAndPan="magnify"><defs/><g><text fill="#000000" font-family="sans-serif" font-size="14" font-weight="bold" lengthAdjust="spacing" textLength="108" x="299" y="25.1074">&#1071;&#1085;&#1076;&#1077;&#1082;&#1089;-&#1052;&#1072;&#1088;&#1082;&#1077;&#1090;</text><!--class Users--><g id="elem_Users"><rect codeLine="6" fill="#F1F1F1" height="193.5898" id="Users" rx="2.5" ry="2.5" style="stroke:#181818;stroke-width:0.5;" width="242" x="156.5" y="46.6211"/><text fill="#000000" font-family="sans-serif" font-size="14" lengthAdjust="spacing" textLength="36" x="259.5" y="66.7285">Users</text><line style="stroke:#181818;stroke-width:0.5;" x1="157.5" x2="397.5" y1="75.2422" y2="75.2422"/><text fill="#000000" font-family="sans-serif" font-size="14" lengthAdjust="spacing" textLength="230" x="162.5" y="94.3496">user_id UUID SERIAL PRIMARY KEY</text><line style="stroke:#181818;stroke-width:1.0;" x1="157.5" x2="397.5" y1="101.8633" y2="101.8633"/><text fill="#000000" font-family="sans-serif" font-size="14" lengthAdjust="spacing" textLength="133" x="162.5" y="120.9707">username VARCHAR</text><text fill="#000000" font-family="sans-serif" font-size="14" lengthAdjust="spacing" textLength="128" x="162.5" y="139.5918">password CHKPASS</text><text fill="#000000" font-family="sans-serif" font-size="14" lengthAdjust="spacing" textLength="105" x="162.5" y="158.2129">name VARCHAR</text><text fill="#000000" font-family="sans-serif" font-size="14" lengthAdjust="spacing" textLength="125" x="162.5" y="176.834">surname VARCHAR</text><text fill="#000000" font-family="sans-serif" font-size="14" lengthAdjust="spacing" textLength="166" x="162.5" y="195.4551">phone_number VARCHAR</text><text fill="#000000" font-family="sans-serif" font-size="14" lengthAdjust="spacing" textLength="121" x="162.5" y="214.0762">address VARCHAR</text><text fill="#000000" font-family="sans-serif" font-size="14" lengthAdjust="spacing" textLength="170" x="162.5" y="232.6973">plus_subscriber BOOLEAN</text></g><!--class Orders--><g id="elem_Orders"><rect codeLine="18" fill="#F1F1F1" height="119.1055" id="Orders" rx="2.5" ry="2.5" style="stroke:#181818;stroke-width:0.5;" width="248" x="153.5" y="300.6211"/><text fill="#000000" font-family="sans-serif" font-size="14" lengthAdjust="spacing" textLength="44" x="255.5" y="320.7285">Orders</text><line style="stroke:#181818;stroke-width:0.5;" x1="154.5" x2="400.5" y1="329.2422" y2="329.2422"/><text fill="#000000" font-family="sans-serif" font-size="14" lengthAdjust="spacing" textLength="236" x="159.5" y="348.3496">order_id UUID SERIAL PRIMARY KEY</text><line style="stroke:#181818;stroke-width:1.0;" x1="154.5" x2="400.5" y1="355.8633" y2="355.8633"/><text fill="#000000" font-family="sans-serif" font-size="14" lengthAdjust="spacing" textLength="163" x="159.5" y="374.9707">user_id (Foreign Key) INT</text><text fill="#000000" font-family="sans-serif" font-size="14" lengthAdjust="spacing" textLength="200" x="159.5" y="393.5918">order_unit_id (Foreign Key) INT</text><text fill="#000000" font-family="sans-serif" font-size="14" lengthAdjust="spacing" textLength="166" x="159.5" y="412.2129">shop_id (Foreign Key) INT</text></g><!--class Shops--><g id="elem_Shops"><rect codeLine="26" fill="#F1F1F1" height="182.9688" id="Shops" rx="2.5" ry="2.5" style="stroke:#181818;stroke-width:0.5;" width="245" x="7" y="479.6211"/><text fill="#000000" font-family="sans-serif" font-size="14" lengthAdjust="spacing" textLength="40" x="109.5" y="499.7285">Shops</text><line style="stroke:#181818;stroke-width:0.5;" x1="8" x2="251" y1="508.2422" y2="508.2422"/><text fill="#000000" font-family="sans-serif" font-size="14" lengthAdjust="spacing" textLength="233" x="13" y="527.3496">shop_id UUID SERIAL PRIMARY KEY</text><line style="stroke:#181818;stroke-width:1.0;" x1="8" x2="251" y1="534.8633" y2="534.8633"/><text fill="#000000" font-family="sans-serif" font-size="14" lengthAdjust="spacing" textLength="105" x="13" y="553.9707">name VARCHAR</text><text fill="#000000" font-family="sans-serif" font-size="14" lengthAdjust="spacing" textLength="121" x="13" y="572.5918">address VARCHAR</text><text fill="#000000" font-family="sans-serif" font-size="14" lengthAdjust="spacing" textLength="103" x="13" y="591.2129">email VARCHAR</text><text fill="#000000" font-family="sans-serif" font-size="14" lengthAdjust="spacing" textLength="166" x="13" y="609.834">phone_number VARCHAR</text><text fill="#000000" font-family="sans-serif" font-size="14" lengthAdjust="spacing" textLength="101" x="13" y="628.4551">rating NUMERIC</text><line style="stroke:#181818;stroke-width:1.0;" x1="8" x2="251" y1="635.9688" y2="635.9688"/><text fill="#000000" font-family="sans-serif" font-size="14" lengthAdjust="spacing" textLength="171" x="13" y="655.0762">rating_id (Foreign Key) INT</text></g><!--class OrderUnits--><g id="elem_OrderUnits"><rect codeLine="38" fill="#F1F1F1" height="127.1055" id="OrderUnits" rx="2.5" ry="2.5" style="stroke:#181818;stroke-width:0.5;" width="279" x="287" y="507.6211"/><text fill="#000000" font-family="sans-serif" font-size="14" lengthAdjust="spacing" textLength="68" x="392.5" y="527.7285">OrderUnits</text><line style="stroke:#181818;stroke-width:0.5;" x1="288" x2="565" y1="536.2422" y2="536.2422"/><text fill="#000000" font-family="sans-serif" font-size="14" lengthAdjust="spacing" textLength="267" x="293" y="555.3496">order_unit_id UUID SERIAL PRIMARY KEY</text><line style="stroke:#181818;stroke-width:1.0;" x1="288" x2="565" y1="562.8633" y2="562.8633"/><text fill="#000000" font-family="sans-serif" font-size="14" lengthAdjust="spacing" textLength="72" x="293" y="581.9707">amount INT</text><line style="stroke:#181818;stroke-width:1.0;" x1="288" x2="565" y1="589.4844" y2="589.4844"/><text fill="#000000" font-family="sans-serif" font-size="14" lengthAdjust="spacing" textLength="169" x="293" y="608.5918">order_id (Foreign Key) INT</text><text fill="#000000" font-family="sans-serif" font-size="14" lengthAdjust="spacing" textLength="183" x="293" y="627.2129">product_id (Foreign Key) INT</text></g><!--class Products--><g id="elem_Products"><rect codeLine="47" fill="#F1F1F1" height="201.5898" id="Products" rx="2.5" ry="2.5" style="stroke:#181818;stroke-width:0.5;" width="262" x="146.5" y="722.6211"/><text fill="#000000" font-family="sans-serif" font-size="14" lengthAdjust="spacing" textLength="56" x="249.5" y="742.7285">Products</text><line style="stroke:#181818;stroke-width:0.5;" x1="147.5" x2="407.5" y1="751.2422" y2="751.2422"/><text fill="#000000" font-family="sans-serif" font-size="14" lengthAdjust="spacing" textLength="250" x="152.5" y="770.3496">product_id UUID SERIAL PRIMARY KEY</text><line style="stroke:#181818;stroke-width:1.0;" x1="147.5" x2="407.5" y1="777.8633" y2="777.8633"/><text fill="#000000" font-family="sans-serif" font-size="14" lengthAdjust="spacing" textLength="105" x="152.5" y="796.9707">name VARCHAR</text><text fill="#000000" font-family="sans-serif" font-size="14" lengthAdjust="spacing" textLength="108" x="152.5" y="815.5918">description TEXT</text><text fill="#000000" font-family="sans-serif" font-size="14" lengthAdjust="spacing" textLength="96" x="152.5" y="834.2129">price NUMERIC</text><text fill="#000000" font-family="sans-serif" font-size="14" lengthAdjust="spacing" textLength="101" x="152.5" y="852.834">rating NUMERIC</text><text fill="#000000" font-family="sans-serif" font-size="14" lengthAdjust="spacing" textLength="103" x="152.5" y="871.4551">rating_votes INT</text><line style="stroke:#181818;stroke-width:1.0;" x1="147.5" x2="407.5" y1="878.9688" y2="878.9688"/><text fill="#000000" font-family="sans-serif" font-size="14" lengthAdjust="spacing" textLength="190" x="152.5" y="898.0762">category_id (Foreign Key) INT</text><text fill="#000000" font-family="sans-serif" font-size="14" lengthAdjust="spacing" textLength="230" x="152.5" y="916.6973">product_option_id (Foreign Key) INT</text></g><!--class Categories--><g id="elem_Categories"><rect codeLine="60" fill="#F1F1F1" height="81.8633" id="Categories" rx="2.5" ry="2.5" style="stroke:#181818;stroke-width:0.5;" width="269" x="444" y="782.6211"/><text fill="#000000" font-family="sans-serif" font-size="14" lengthAdjust="spacing" textLength="69" x="544" y="802.7285">Categories</text><line style="stroke:#181818;stroke-width:0.5;" x1="445" x2="712" y1="811.2422" y2="811.2422"/><text fill="#000000" font-family="sans-serif" font-size="14" lengthAdjust="spacing" textLength="257" x="450" y="830.3496">category_id UUID SERIAL PRIMARY KEY</text><line style="stroke:#181818;stroke-width:1.0;" x1="445" x2="712" y1="837.8633" y2="837.8633"/><text fill="#000000" font-family="sans-serif" font-size="14" lengthAdjust="spacing" textLength="74" x="450" y="856.9707">name TEXT</text></g><!--class ProductOptions--><g id="elem_ProductOptions"><rect codeLine="66" fill="#F1F1F1" height="108.4844" id="ProductOptions" rx="2.5" ry="2.5" style="stroke:#181818;stroke-width:0.5;" width="309" x="123" y="984.6211"/><text fill="#000000" font-family="sans-serif" font-size="14" lengthAdjust="spacing" textLength="98" x="228.5" y="1004.7285">ProductOptions</text><line style="stroke:#181818;stroke-width:0.5;" x1="124" x2="431" y1="1013.2422" y2="1013.2422"/><text fill="#000000" font-family="sans-serif" font-size="14" lengthAdjust="spacing" textLength="297" x="129" y="1032.3496">product_option_id UUID SERIAL PRIMARY KEY</text><line style="stroke:#181818;stroke-width:1.0;" x1="124" x2="431" y1="1039.8633" y2="1039.8633"/><text fill="#000000" font-family="sans-serif" font-size="14" lengthAdjust="spacing" textLength="73" x="129" y="1058.9707">value TEXT</text><line style="stroke:#181818;stroke-width:1.0;" x1="124" x2="431" y1="1066.4844" y2="1066.4844"/><text fill="#000000" font-family="sans-serif" font-size="14" lengthAdjust="spacing" textLength="183" x="129" y="1085.5918">product_id (Foreign Key) INT</text></g><!--link Products to Categories--><g id="link_Products_Categories"><path codeLine="74" d="M426.65,823.6211 C438.21,823.6211 423.93,823.6211 435.53,823.6211 " fill="none" id="Products-Categories" style="stroke:#181818;stroke-width:1.0;"/><line style="stroke:#181818;stroke-width:1.0;" x1="416.65" x2="408.65" y1="823.6211" y2="829.6211"/><line style="stroke:#181818;stroke-width:1.0;" x1="416.65" x2="408.65" y1="823.6211" y2="817.6211"/><line style="stroke:#181818;stroke-width:1.0;" x1="416.65" x2="408.65" y1="823.6211" y2="823.6211"/><ellipse cx="422.65" cy="823.6211" fill="none" rx="4" ry="4" style="stroke:#181818;stroke-width:1.0;"/><line style="stroke:#181818;stroke-width:1.0;" x1="439.53" x2="439.53" y1="819.6211" y2="827.6211"/><line style="stroke:#181818;stroke-width:1.0;" x1="436.53" x2="436.53" y1="819.6211" y2="827.6211"/><line style="stroke:#181818;stroke-width:1.0;" x1="435.53" x2="443.53" y1="823.6211" y2="823.6211"/></g><!--link Products to ProductOptions--><g id="link_Products_ProductOptions"><path codeLine="75" d="M277.5,942.8211 C277.5,963.4111 277.5,948.3011 277.5,966.4711 " fill="none" id="Products-ProductOptions" style="stroke:#181818;stroke-width:1.0;"/><line style="stroke:#181818;stroke-width:1.0;" x1="277.5" x2="271.5" y1="932.8211" y2="924.8211"/><line style="stroke:#181818;stroke-width:1.0;" x1="277.5" x2="283.5" y1="932.8211" y2="924.8211"/><line style="stroke:#181818;stroke-width:1.0;" x1="277.5" x2="277.5" y1="932.8211" y2="924.8211"/><ellipse cx="277.5" cy="938.8211" fill="none" rx="4" ry="4" style="stroke:#181818;stroke-width:1.0;"/><line style="stroke:#181818;stroke-width:1.0;" x1="277.5" x2="283.5" y1="976.4711" y2="984.4711"/><line style="stroke:#181818;stroke-width:1.0;" x1="277.5" x2="271.5" y1="976.4711" y2="984.4711"/><line style="stroke:#181818;stroke-width:1.0;" x1="277.5" x2="277.5" y1="976.4711" y2="984.4711"/><ellipse cx="277.5" cy="970.4711" fill="none" rx="4" ry="4" style="stroke:#181818;stroke-width:1.0;"/></g><!--link Shops to Products--><g id="link_Shops_Products"><path codeLine="76" d="M199.25,670.6411 C199.25,690.1111 199.25,684.7811 199.25,704.5911 " fill="none" id="Shops-Products" style="stroke:#181818;stroke-width:1.0;"/><line style="stroke:#181818;stroke-width:1.0;" x1="195.25" x2="203.25" y1="666.6411" y2="666.6411"/><line style="stroke:#181818;stroke-width:1.0;" x1="195.25" x2="203.25" y1="669.6411" y2="669.6411"/><line style="stroke:#181818;stroke-width:1.0;" x1="199.25" x2="199.25" y1="670.6411" y2="662.6411"/><line style="stroke:#181818;stroke-width:1.0;" x1="199.25" x2="205.25" y1="714.5911" y2="722.5911"/><line style="stroke:#181818;stroke-width:1.0;" x1="199.25" x2="193.25" y1="714.5911" y2="722.5911"/><line style="stroke:#181818;stroke-width:1.0;" x1="199.25" x2="199.25" y1="714.5911" y2="722.5911"/><ellipse cx="199.25" cy="708.5911" fill="none" rx="4" ry="4" style="stroke:#181818;stroke-width:1.0;"/></g><!--link Orders to Shops--><g id="link_Orders_Shops"><path codeLine="77" d="M202.75,437.7411 C202.75,456.2611 202.75,451.1311 202.75,471.3211 " fill="none" id="Orders-Shops" style="stroke:#181818;stroke-width:1.0;"/><line style="stroke:#181818;stroke-width:1.0;" x1="202.75" x2="196.75" y1="427.7411" y2="419.7411"/><line style="stroke:#181818;stroke-width:1.0;" x1="202.75" x2="208.75" y1="427.7411" y2="419.7411"/><line style="stroke:#181818;stroke-width:1.0;" x1="202.75" x2="202.75" y1="427.7411" y2="419.7411"/><ellipse cx="202.75" cy="433.7411" fill="none" rx="4" ry="4" style="stroke:#181818;stroke-width:1.0;"/><line style="stroke:#181818;stroke-width:1.0;" x1="206.75" x2="198.75" y1="475.3211" y2="475.3211"/><line style="stroke:#181818;stroke-width:1.0;" x1="206.75" x2="198.75" y1="472.3211" y2="472.3211"/><line style="stroke:#181818;stroke-width:1.0;" x1="202.75" x2="202.75" y1="471.3211" y2="479.3211"/></g><!--link Users to Orders--><g id="link_Users_Orders"><path codeLine="78" d="M277.5,248.7911 C277.5,269.1311 277.5,264.0111 277.5,282.4911 " fill="none" id="Users-Orders" style="stroke:#181818;stroke-width:1.0;"/><line style="stroke:#181818;stroke-width:1.0;" x1="273.5" x2="281.5" y1="244.7911" y2="244.7911"/><line style="stroke:#181818;stroke-width:1.0;" x1="273.5" x2="281.5" y1="247.7911" y2="247.7911"/><line style="stroke:#181818;stroke-width:1.0;" x1="277.5" x2="277.5" y1="248.7911" y2="240.7911"/><line style="stroke:#181818;stroke-width:1.0;" x1="277.5" x2="283.5" y1="292.4911" y2="300.4911"/><line style="stroke:#181818;stroke-width:1.0;" x1="277.5" x2="271.5" y1="292.4911" y2="300.4911"/><line style="stroke:#181818;stroke-width:1.0;" x1="277.5" x2="277.5" y1="292.4911" y2="300.4911"/><ellipse cx="277.5" cy="286.4911" fill="none" rx="4" ry="4" style="stroke:#181818;stroke-width:1.0;"/></g><!--link Orders to OrderUnits--><g id="link_Orders_OrderUnits"><path codeLine="79" d="M344.25,427.7411 C344.25,455.1611 344.25,471.7111 344.25,499.5911 " fill="none" id="Orders-OrderUnits" style="stroke:#181818;stroke-width:1.0;"/><line style="stroke:#181818;stroke-width:1.0;" x1="340.25" x2="348.25" y1="423.7411" y2="423.7411"/><line style="stroke:#181818;stroke-width:1.0;" x1="340.25" x2="348.25" y1="426.7411" y2="426.7411"/><line style="stroke:#181818;stroke-width:1.0;" x1="344.25" x2="344.25" y1="427.7411" y2="419.7411"/><line style="stroke:#181818;stroke-width:1.0;" x1="344.25" x2="350.25" y1="499.5911" y2="507.5911"/><line style="stroke:#181818;stroke-width:1.0;" x1="344.25" x2="338.25" y1="499.5911" y2="507.5911"/><line style="stroke:#181818;stroke-width:1.0;" x1="344.25" x2="344.25" y1="499.5911" y2="507.5911"/><line style="stroke:#181818;stroke-width:1.0;" x1="348.25" x2="340.25" y1="497.5911" y2="497.5911"/></g><!--link OrderUnits to Products--><g id="link_OrderUnits_Products"><path codeLine="80" d="M347.75,652.8411 C347.75,679.4311 347.75,684.9711 347.75,714.5811 " fill="none" id="OrderUnits-Products" style="stroke:#181818;stroke-width:1.0;"/><line style="stroke:#181818;stroke-width:1.0;" x1="347.75" x2="341.75" y1="642.8411" y2="634.8411"/><line style="stroke:#181818;stroke-width:1.0;" x1="347.75" x2="353.75" y1="642.8411" y2="634.8411"/><line style="stroke:#181818;stroke-width:1.0;" x1="347.75" x2="347.75" y1="642.8411" y2="634.8411"/><ellipse cx="347.75" cy="648.8411" fill="none" rx="4" ry="4" style="stroke:#181818;stroke-width:1.0;"/><line style="stroke:#181818;stroke-width:1.0;" x1="351.75" x2="343.75" y1="718.5811" y2="718.5811"/><line style="stroke:#181818;stroke-width:1.0;" x1="351.75" x2="343.75" y1="715.5811" y2="715.5811"/><line style="stroke:#181818;stroke-width:1.0;" x1="347.75" x2="347.75" y1="714.5811" y2="722.5811"/></g><!--SRC=[dPJDRfj058NtynIpR1Oy17KSnN9YMpXKpSgQm9KP1MRG_2IoWgMspz5tQ1VD9bBVOVn66NuDDX6qhE3Umvrple5HLCM0pI_pr_mnh-RjyDqnFytlmpVpPbuFFn2AQ0Wue2A80Sb7ob8YI89Zoa3jKi1Sg8WZ14nHjSE-127n2yBsqlP-GqFi-xDBl9vwC_S6hxpPhUlTu_dqlj0uJYDb907ynVKcrwvN55CYvJCN8PvSprVkUbqKprHIzxmPSGORffC749q62KC1KdR5iPORgHza86Yk_xnStapT1TetePOYFARY-SC_nCgbdwwu0BfbU0wx2pnRtBKcQKRLnnePyRI_UxItjfhQNQqVOUwCMXySI0YDnx4LH56snGl_rYuxQQzKTePY59HzIwDBkkOp8X59k6QgOLTLcmth9vmA7kf03RbRbRBQM-kj_q4TGlwrfOfoXk-cNsidD80Elnwa5Sidha2U9Ws8WYqNk-6ml5XwAFEad4UXJjrUO6pi8juPnsLXu9JcqTQ8wKyard2aLrM7jhFPnprt1Dr6oicoLb1qui-gTEhmbsR_KVctPPdJgLP7X9NdymfDgsP7s6fnDgBMPxxFgawfxBJAGStyTm00]--></g></svg>