<?xml version="1.0" encoding="us-ascii" standalone="no"?><svg xmlns="http://www.w3.org/2000/svg" xmlns:xlink="http://www.w3.org/1999/xlink" contentStyleType="text/css" height="670.8px" preserveAspectRatio="none" style="width:432px;height:670px;background:#FFFFFF;" version="1.1" viewBox="0 0 432 670" width="432px" zoomAndPan="magnify"><defs/><g><text fill="#000000" font-family="sans-serif" font-size="8.4" font-weight="bold" lengthAdjust="spacing" textLength="64.8" x="179.4" y="15.0645">&#1071;&#1085;&#1076;&#1077;&#1082;&#1089;-&#1052;&#1072;&#1088;&#1082;&#1077;&#1090;</text><!--class User--><g id="elem_User"><rect codeLine="6" fill="#F1F1F1" height="116.1539" id="User" rx="1.5" ry="1.5" style="stroke:#181818;stroke-width:0.3;" width="145.2" x="93.9" y="27.9727"/><text fill="#000000" font-family="sans-serif" font-size="8.4" lengthAdjust="spacing" textLength="17.4" x="157.8" y="40.0371">User</text><line style="stroke:#181818;stroke-width:0.3;" x1="94.5" x2="238.5" y1="45.1453" y2="45.1453"/><text fill="#000000" font-family="sans-serif" font-size="8.4" lengthAdjust="spacing" textLength="138" x="97.5" y="56.6098">user_id UUID SERIAL PRIMARY KEY</text><line style="stroke:#181818;stroke-width:0.6;" x1="94.5" x2="238.5" y1="61.118" y2="61.118"/><text fill="#000000" font-family="sans-serif" font-size="8.4" lengthAdjust="spacing" textLength="79.8" x="97.5" y="72.5824">username VARCHAR</text><text fill="#000000" font-family="sans-serif" font-size="8.4" lengthAdjust="spacing" textLength="76.8" x="97.5" y="83.7551">password CHKPASS</text><text fill="#000000" font-family="sans-serif" font-size="8.4" lengthAdjust="spacing" textLength="63" x="97.5" y="94.9277">name VARCHAR</text><text fill="#000000" font-family="sans-serif" font-size="8.4" lengthAdjust="spacing" textLength="75" x="97.5" y="106.1004">surname VARCHAR</text><text fill="#000000" font-family="sans-serif" font-size="8.4" lengthAdjust="spacing" textLength="99.6" x="97.5" y="117.273">phone_number VARCHAR</text><text fill="#000000" font-family="sans-serif" font-size="8.4" lengthAdjust="spacing" textLength="72.6" x="97.5" y="128.4457">address VARCHAR</text><text fill="#000000" font-family="sans-serif" font-size="8.4" lengthAdjust="spacing" textLength="102" x="97.5" y="139.6184">plus_subscriber BOOLEAN</text></g><!--class Order--><g id="elem_Order"><rect codeLine="18" fill="#F1F1F1" height="71.4633" id="Order" rx="1.5" ry="1.5" style="stroke:#181818;stroke-width:0.3;" width="148.8" x="92.1" y="180.3727"/><text fill="#000000" font-family="sans-serif" font-size="8.4" lengthAdjust="spacing" textLength="22.2" x="155.4" y="192.4371">Order</text><line style="stroke:#181818;stroke-width:0.3;" x1="92.7" x2="240.3" y1="197.5453" y2="197.5453"/><text fill="#000000" font-family="sans-serif" font-size="8.4" lengthAdjust="spacing" textLength="141.6" x="95.7" y="209.0098">order_id UUID SERIAL PRIMARY KEY</text><line style="stroke:#181818;stroke-width:0.6;" x1="92.7" x2="240.3" y1="213.518" y2="213.518"/><text fill="#000000" font-family="sans-serif" font-size="8.4" lengthAdjust="spacing" textLength="97.8" x="95.7" y="224.9824">user_id (Foreign Key) INT</text><text fill="#000000" font-family="sans-serif" font-size="8.4" lengthAdjust="spacing" textLength="124.8" x="95.7" y="236.1551">order_state_id (Foreign Key) INT</text><text fill="#000000" font-family="sans-serif" font-size="8.4" lengthAdjust="spacing" textLength="99.6" x="95.7" y="247.3277">shop_id (Foreign Key) INT</text></g><!--class Shop--><g id="elem_Shop"><rect codeLine="26" fill="#F1F1F1" height="109.7813" id="Shop" rx="1.5" ry="1.5" style="stroke:#181818;stroke-width:0.3;" width="147" x="4.2" y="287.7727"/><text fill="#000000" font-family="sans-serif" font-size="8.4" lengthAdjust="spacing" textLength="19.8" x="67.8" y="299.8371">Shop</text><line style="stroke:#181818;stroke-width:0.3;" x1="4.8" x2="150.6" y1="304.9453" y2="304.9453"/><text fill="#000000" font-family="sans-serif" font-size="8.4" lengthAdjust="spacing" textLength="139.8" x="7.8" y="316.4098">shop_id UUID SERIAL PRIMARY KEY</text><line style="stroke:#181818;stroke-width:0.6;" x1="4.8" x2="150.6" y1="320.918" y2="320.918"/><text fill="#000000" font-family="sans-serif" font-size="8.4" lengthAdjust="spacing" textLength="63" x="7.8" y="332.3824">name VARCHAR</text><text fill="#000000" font-family="sans-serif" font-size="8.4" lengthAdjust="spacing" textLength="72.6" x="7.8" y="343.5551">address VARCHAR</text><text fill="#000000" font-family="sans-serif" font-size="8.4" lengthAdjust="spacing" textLength="61.8" x="7.8" y="354.7277">email VARCHAR</text><text fill="#000000" font-family="sans-serif" font-size="8.4" lengthAdjust="spacing" textLength="99.6" x="7.8" y="365.9004">phone_number VARCHAR</text><text fill="#000000" font-family="sans-serif" font-size="8.4" lengthAdjust="spacing" textLength="60.6" x="7.8" y="377.073">rating NUMERIC</text><line style="stroke:#181818;stroke-width:0.6;" x1="4.8" x2="150.6" y1="381.5813" y2="381.5813"/><text fill="#000000" font-family="sans-serif" font-size="8.4" lengthAdjust="spacing" textLength="102.6" x="7.8" y="393.0457">rating_id (Foreign Key) INT</text></g><!--class OrderUnit--><g id="elem_OrderUnit"><rect codeLine="38" fill="#F1F1F1" height="76.2633" id="OrderUnit" rx="1.5" ry="1.5" style="stroke:#181818;stroke-width:0.3;" width="167.4" x="172.2" y="304.5727"/><text fill="#000000" font-family="sans-serif" font-size="8.4" lengthAdjust="spacing" textLength="36.6" x="237.6" y="316.6371">OrderUnit</text><line style="stroke:#181818;stroke-width:0.3;" x1="172.8" x2="339" y1="321.7453" y2="321.7453"/><text fill="#000000" font-family="sans-serif" font-size="8.4" lengthAdjust="spacing" textLength="160.2" x="175.8" y="333.2098">order_unit_id UUID SERIAL PRIMARY KEY</text><line style="stroke:#181818;stroke-width:0.6;" x1="172.8" x2="339" y1="337.718" y2="337.718"/><text fill="#000000" font-family="sans-serif" font-size="8.4" lengthAdjust="spacing" textLength="43.2" x="175.8" y="349.1824">amount INT</text><line style="stroke:#181818;stroke-width:0.6;" x1="172.8" x2="339" y1="353.6906" y2="353.6906"/><text fill="#000000" font-family="sans-serif" font-size="8.4" lengthAdjust="spacing" textLength="101.4" x="175.8" y="365.1551">order_id (Foreign Key) INT</text><text fill="#000000" font-family="sans-serif" font-size="8.4" lengthAdjust="spacing" textLength="133.2" x="175.8" y="376.3277">shop_product_id (Foreign Key) INT</text></g><!--class Product--><g id="elem_Product"><rect codeLine="47" fill="#F1F1F1" height="120.9539" id="Product" rx="1.5" ry="1.5" style="stroke:#181818;stroke-width:0.3;" width="157.2" x="87.9" y="433.5727"/><text fill="#000000" font-family="sans-serif" font-size="8.4" lengthAdjust="spacing" textLength="29.4" x="151.8" y="445.6371">Product</text><line style="stroke:#181818;stroke-width:0.3;" x1="88.5" x2="244.5" y1="450.7453" y2="450.7453"/><text fill="#000000" font-family="sans-serif" font-size="8.4" lengthAdjust="spacing" textLength="150" x="91.5" y="462.2098">product_id UUID SERIAL PRIMARY KEY</text><line style="stroke:#181818;stroke-width:0.6;" x1="88.5" x2="244.5" y1="466.718" y2="466.718"/><text fill="#000000" font-family="sans-serif" font-size="8.4" lengthAdjust="spacing" textLength="63" x="91.5" y="478.1824">name VARCHAR</text><text fill="#000000" font-family="sans-serif" font-size="8.4" lengthAdjust="spacing" textLength="64.8" x="91.5" y="489.3551">description TEXT</text><text fill="#000000" font-family="sans-serif" font-size="8.4" lengthAdjust="spacing" textLength="57.6" x="91.5" y="500.5277">price NUMERIC</text><text fill="#000000" font-family="sans-serif" font-size="8.4" lengthAdjust="spacing" textLength="60.6" x="91.5" y="511.7004">rating NUMERIC</text><text fill="#000000" font-family="sans-serif" font-size="8.4" lengthAdjust="spacing" textLength="61.8" x="91.5" y="522.873">rating_votes INT</text><line style="stroke:#181818;stroke-width:0.6;" x1="88.5" x2="244.5" y1="527.3813" y2="527.3813"/><text fill="#000000" font-family="sans-serif" font-size="8.4" lengthAdjust="spacing" textLength="147.6" x="91.5" y="538.8457">product_category_id (Foreign Key) INT</text><text fill="#000000" font-family="sans-serif" font-size="8.4" lengthAdjust="spacing" textLength="102.6" x="91.5" y="550.0184">rating_id (Foreign Key) INT</text></g><!--class Category--><g id="elem_Category"><rect codeLine="60" fill="#F1F1F1" height="49.118" id="Category" rx="1.5" ry="1.5" style="stroke:#181818;stroke-width:0.3;" width="161.4" x="266.4" y="469.5727"/><text fill="#000000" font-family="sans-serif" font-size="8.4" lengthAdjust="spacing" textLength="34.8" x="329.7" y="481.6371">Category</text><line style="stroke:#181818;stroke-width:0.3;" x1="267" x2="427.2" y1="486.7453" y2="486.7453"/><text fill="#000000" font-family="sans-serif" font-size="8.4" lengthAdjust="spacing" textLength="154.2" x="270" y="498.2098">category_id UUID SERIAL PRIMARY KEY</text><line style="stroke:#181818;stroke-width:0.6;" x1="267" x2="427.2" y1="502.718" y2="502.718"/><text fill="#000000" font-family="sans-serif" font-size="8.4" lengthAdjust="spacing" textLength="44.4" x="270" y="514.1824">name TEXT</text></g><!--class ProductOption--><g id="elem_ProductOption"><rect codeLine="66" fill="#F1F1F1" height="76.2633" id="ProductOption" rx="1.5" ry="1.5" style="stroke:#181818;stroke-width:0.3;" width="185.4" x="163.8" y="590.7727"/><text fill="#000000" font-family="sans-serif" font-size="8.4" lengthAdjust="spacing" textLength="54.6" x="229.2" y="602.8371">ProductOption</text><line style="stroke:#181818;stroke-width:0.3;" x1="164.4" x2="348.6" y1="607.9453" y2="607.9453"/><text fill="#000000" font-family="sans-serif" font-size="8.4" lengthAdjust="spacing" textLength="178.2" x="167.4" y="619.4098">product_option_id UUID SERIAL PRIMARY KEY</text><line style="stroke:#181818;stroke-width:0.6;" x1="164.4" x2="348.6" y1="623.918" y2="623.918"/><text fill="#000000" font-family="sans-serif" font-size="8.4" lengthAdjust="spacing" textLength="43.8" x="167.4" y="635.3824">value TEXT</text><line style="stroke:#181818;stroke-width:0.6;" x1="164.4" x2="348.6" y1="639.8906" y2="639.8906"/><text fill="#000000" font-family="sans-serif" font-size="8.4" lengthAdjust="spacing" textLength="109.8" x="167.4" y="651.3551">product_id (Foreign Key) INT</text><text fill="#000000" font-family="sans-serif" font-size="8.4" lengthAdjust="spacing" textLength="142.2" x="167.4" y="662.5277">category_option_id (Foreign Key) INT</text></g><!--link Product to Category--><g id="link_Product_Category"><path codeLine="76" d="M255.99,494.1727 C262.926,494.1727 254.358,494.1727 261.318,494.1727 " fill="none" id="Product-Category" style="stroke:#181818;stroke-width:0.6;"/><line style="stroke:#181818;stroke-width:0.6;" x1="249.99" x2="245.19" y1="494.1727" y2="497.7727"/><line style="stroke:#181818;stroke-width:0.6;" x1="249.99" x2="245.19" y1="494.1727" y2="490.5727"/><line style="stroke:#181818;stroke-width:0.6;" x1="249.99" x2="245.19" y1="494.1727" y2="494.1727"/><ellipse cx="253.59" cy="494.1727" fill="none" rx="2.4" ry="2.4" style="stroke:#181818;stroke-width:0.6;"/><line style="stroke:#181818;stroke-width:0.6;" x1="263.718" x2="263.718" y1="491.7727" y2="496.5727"/><line style="stroke:#181818;stroke-width:0.6;" x1="261.918" x2="261.918" y1="491.7727" y2="496.5727"/><line style="stroke:#181818;stroke-width:0.6;" x1="261.318" x2="266.118" y1="494.1727" y2="494.1727"/></g><!--link Category to ProductOption--><g id="link_Category_ProductOption"><path codeLine="77" d="M307.8,523.6807 C307.8,543.7327 307.8,556.7467 307.8,579.7687 " fill="none" id="Category-ProductOption" style="stroke:#181818;stroke-width:0.6;"/><line style="stroke:#181818;stroke-width:0.6;" x1="305.4" x2="310.2" y1="521.2807" y2="521.2807"/><line style="stroke:#181818;stroke-width:0.6;" x1="305.4" x2="310.2" y1="523.0807" y2="523.0807"/><line style="stroke:#181818;stroke-width:0.6;" x1="307.8" x2="307.8" y1="523.6807" y2="518.8807"/><line style="stroke:#181818;stroke-width:0.6;" x1="307.8" x2="311.4" y1="585.7687" y2="590.5687"/><line style="stroke:#181818;stroke-width:0.6;" x1="307.8" x2="304.2" y1="585.7687" y2="590.5687"/><line style="stroke:#181818;stroke-width:0.6;" x1="307.8" x2="307.8" y1="585.7687" y2="590.5687"/><ellipse cx="307.8" cy="582.1687" fill="none" rx="2.4" ry="2.4" style="stroke:#181818;stroke-width:0.6;"/></g><!--link ProductOption to Product--><g id="link_ProductOption_Product"><path codeLine="78" d="M204.45,579.8347 C204.45,568.7107 204.45,577.8787 204.45,565.7287 " fill="none" id="ProductOption-Product" style="stroke:#181818;stroke-width:0.6;"/><line style="stroke:#181818;stroke-width:0.6;" x1="204.45" x2="208.05" y1="585.8347" y2="590.6347"/><line style="stroke:#181818;stroke-width:0.6;" x1="204.45" x2="200.85" y1="585.8347" y2="590.6347"/><line style="stroke:#181818;stroke-width:0.6;" x1="204.45" x2="204.45" y1="585.8347" y2="590.6347"/><ellipse cx="204.45" cy="582.2347" fill="none" rx="2.4" ry="2.4" style="stroke:#181818;stroke-width:0.6;"/><line style="stroke:#181818;stroke-width:0.6;" x1="204.45" x2="200.85" y1="559.7287" y2="554.9287"/><line style="stroke:#181818;stroke-width:0.6;" x1="204.45" x2="208.05" y1="559.7287" y2="554.9287"/><line style="stroke:#181818;stroke-width:0.6;" x1="204.45" x2="204.45" y1="559.7287" y2="554.9287"/><ellipse cx="204.45" cy="563.3287" fill="none" rx="2.4" ry="2.4" style="stroke:#181818;stroke-width:0.6;"/></g><!--link Shop to Product--><g id="link_Shop_Product"><path codeLine="79" d="M119.55,402.3847 C119.55,414.0667 119.55,410.8687 119.55,422.7547 " fill="none" id="Shop-Product" style="stroke:#181818;stroke-width:0.6;"/><line style="stroke:#181818;stroke-width:0.6;" x1="117.15" x2="121.95" y1="399.9847" y2="399.9847"/><line style="stroke:#181818;stroke-width:0.6;" x1="117.15" x2="121.95" y1="401.7847" y2="401.7847"/><line style="stroke:#181818;stroke-width:0.6;" x1="119.55" x2="119.55" y1="402.3847" y2="397.5847"/><line style="stroke:#181818;stroke-width:0.6;" x1="119.55" x2="123.15" y1="428.7547" y2="433.5547"/><line style="stroke:#181818;stroke-width:0.6;" x1="119.55" x2="115.95" y1="428.7547" y2="433.5547"/><line style="stroke:#181818;stroke-width:0.6;" x1="119.55" x2="119.55" y1="428.7547" y2="433.5547"/><ellipse cx="119.55" cy="425.1547" fill="none" rx="2.4" ry="2.4" style="stroke:#181818;stroke-width:0.6;"/></g><!--link Order to Shop--><g id="link_Order_Shop"><path codeLine="80" d="M121.65,262.6447 C121.65,273.7567 121.65,270.6787 121.65,282.7927 " fill="none" id="Order-Shop" style="stroke:#181818;stroke-width:0.6;"/><line style="stroke:#181818;stroke-width:0.6;" x1="121.65" x2="118.05" y1="256.6447" y2="251.8447"/><line style="stroke:#181818;stroke-width:0.6;" x1="121.65" x2="125.25" y1="256.6447" y2="251.8447"/><line style="stroke:#181818;stroke-width:0.6;" x1="121.65" x2="121.65" y1="256.6447" y2="251.8447"/><ellipse cx="121.65" cy="260.2447" fill="none" rx="2.4" ry="2.4" style="stroke:#181818;stroke-width:0.6;"/><line style="stroke:#181818;stroke-width:0.6;" x1="124.05" x2="119.25" y1="285.1927" y2="285.1927"/><line style="stroke:#181818;stroke-width:0.6;" x1="124.05" x2="119.25" y1="283.3927" y2="283.3927"/><line style="stroke:#181818;stroke-width:0.6;" x1="121.65" x2="121.65" y1="282.7927" y2="287.5927"/></g><!--link User to Order--><g id="link_User_Order"><path codeLine="81" d="M166.5,149.2747 C166.5,161.4787 166.5,158.4067 166.5,169.4947 " fill="none" id="User-Order" style="stroke:#181818;stroke-width:0.6;"/><line style="stroke:#181818;stroke-width:0.6;" x1="164.1" x2="168.9" y1="146.8747" y2="146.8747"/><line style="stroke:#181818;stroke-width:0.6;" x1="164.1" x2="168.9" y1="148.6747" y2="148.6747"/><line style="stroke:#181818;stroke-width:0.6;" x1="166.5" x2="166.5" y1="149.2747" y2="144.4747"/><line style="stroke:#181818;stroke-width:0.6;" x1="166.5" x2="170.1" y1="175.4947" y2="180.2947"/><line style="stroke:#181818;stroke-width:0.6;" x1="166.5" x2="162.9" y1="175.4947" y2="180.2947"/><line style="stroke:#181818;stroke-width:0.6;" x1="166.5" x2="166.5" y1="175.4947" y2="180.2947"/><ellipse cx="166.5" cy="171.8947" fill="none" rx="2.4" ry="2.4" style="stroke:#181818;stroke-width:0.6;"/></g><!--link Order to OrderUnit--><g id="link_Order_OrderUnit"><path codeLine="82" d="M206.55,256.6447 C206.55,273.0967 206.55,283.0267 206.55,299.7547 " fill="none" id="Order-OrderUnit" style="stroke:#181818;stroke-width:0.6;"/><line style="stroke:#181818;stroke-width:0.6;" x1="204.15" x2="208.95" y1="254.2447" y2="254.2447"/><line style="stroke:#181818;stroke-width:0.6;" x1="204.15" x2="208.95" y1="256.0447" y2="256.0447"/><line style="stroke:#181818;stroke-width:0.6;" x1="206.55" x2="206.55" y1="256.6447" y2="251.8447"/><line style="stroke:#181818;stroke-width:0.6;" x1="206.55" x2="210.15" y1="299.7547" y2="304.5547"/><line style="stroke:#181818;stroke-width:0.6;" x1="206.55" x2="202.95" y1="299.7547" y2="304.5547"/><line style="stroke:#181818;stroke-width:0.6;" x1="206.55" x2="206.55" y1="299.7547" y2="304.5547"/><line style="stroke:#181818;stroke-width:0.6;" x1="208.95" x2="204.15" y1="298.5547" y2="298.5547"/></g><!--link OrderUnit to Product--><g id="link_OrderUnit_Product"><path codeLine="83" d="M208.65,391.7047 C208.65,407.6587 208.65,410.9827 208.65,428.7487 " fill="none" id="OrderUnit-Product" style="stroke:#181818;stroke-width:0.6;"/><line style="stroke:#181818;stroke-width:0.6;" x1="208.65" x2="205.05" y1="385.7047" y2="380.9047"/><line style="stroke:#181818;stroke-width:0.6;" x1="208.65" x2="212.25" y1="385.7047" y2="380.9047"/><line style="stroke:#181818;stroke-width:0.6;" x1="208.65" x2="208.65" y1="385.7047" y2="380.9047"/><ellipse cx="208.65" cy="389.3047" fill="none" rx="2.4" ry="2.4" style="stroke:#181818;stroke-width:0.6;"/><line style="stroke:#181818;stroke-width:0.6;" x1="211.05" x2="206.25" y1="431.1487" y2="431.1487"/><line style="stroke:#181818;stroke-width:0.6;" x1="211.05" x2="206.25" y1="429.3487" y2="429.3487"/><line style="stroke:#181818;stroke-width:0.6;" x1="208.65" x2="208.65" y1="428.7487" y2="433.5487"/></g><!--SRC=[dPHBRjim54NdN0M7oK2BK1mNCPpOXcmLpSXWf0UBg4GA_AGm8WDjrz4zj8Da4Y1xe7SKwcDzOhbHeX5nUVduxY4fHLKCsFmrB-RHF9dd_I_7_37_zZ_DitdQ_qOeeY7WW8eW1YI_KvOIGH8SKmPgcmBcGaKS8M2AgYts9GZyWB3zj1skQOXzVtA9bsDlubxZXJUvSRrRF1tV5Xx7gQsC982_kjxeolKACILI_k0YnAEhwS9TBWlno2Lrpyg8CrWpdTpPPjeJ90m5IDarnrgkfRwJWQ2v_s8-lnwxCxIhCyr5M8VY-VW3gNBhsHSkW6uOdiBs74zcgrObgOY2qoOPyRH_jcblQJrLTmVxWEQEeFMnWOJGU1XQGHHb6pppR-ose_PEvSnxAGh8FgEg0rfROM0Wad3DL4skKklp-W_VLF1G1-gz3XUbhUgljUWpj4F8xrkgA6TuDVwsgchI03e8UwXMEE-v0lasxQ6fm5wg3HVRqy677SgegbDbRfST6he8TmHnNYRlekI5EB3uFOarDEZU03YPkuxGRDOB01rEUySTGJUHShAine5gBbdcEFoXcmfrCze2BGigNcjt6If_CBdHRf8R6aMdkPR_LL7pGdPPfHTIUw8iSQZx2W00]--></g></svg>