<?xml version="1.0" encoding="us-ascii" standalone="no"?><svg xmlns="http://www.w3.org/2000/svg" xmlns:xlink="http://www.w3.org/1999/xlink" contentStyleType="text/css" height="722.16px" preserveAspectRatio="none" style="width:700px;height:722px;background:#FFFFFF;" version="1.1" viewBox="0 0 700 722" width="700.23px" zoomAndPan="magnify"><defs/><g><text fill="#000000" font-family="sans-serif" font-size="7.14" font-weight="bold" lengthAdjust="spacing" textLength="55.08" x="319.005" y="12.8048">&#1071;&#1085;&#1076;&#1077;&#1082;&#1089;-&#1052;&#1072;&#1088;&#1082;&#1077;&#1090;</text><!--class User--><g id="elem_User"><rect codeLine="6" fill="#F1F1F1" height="98.7308" id="User" rx="1.275" ry="1.275" style="stroke:#181818;stroke-width:0.255;" width="123.42" x="412.59" y="23.7768"/><text fill="#000000" font-family="sans-serif" font-size="7.14" lengthAdjust="spacing" textLength="14.79" x="466.905" y="34.0315">User</text><line style="stroke:#181818;stroke-width:0.255;" x1="413.1" x2="535.5" y1="38.3735" y2="38.3735"/><text fill="#000000" font-family="sans-serif" font-size="7.14" lengthAdjust="spacing" textLength="117.3" x="415.65" y="48.1183">user_id UUID SERIAL PRIMARY KEY</text><line style="stroke:#181818;stroke-width:0.51;" x1="413.1" x2="535.5" y1="51.9503" y2="51.9503"/><text fill="#000000" font-family="sans-serif" font-size="7.14" lengthAdjust="spacing" textLength="67.83" x="415.65" y="61.6951">username VARCHAR</text><text fill="#000000" font-family="sans-serif" font-size="7.14" lengthAdjust="spacing" textLength="65.28" x="415.65" y="71.1918">password CHKPASS</text><text fill="#000000" font-family="sans-serif" font-size="7.14" lengthAdjust="spacing" textLength="53.55" x="415.65" y="80.6886">name VARCHAR</text><text fill="#000000" font-family="sans-serif" font-size="7.14" lengthAdjust="spacing" textLength="63.75" x="415.65" y="90.1853">surname VARCHAR</text><text fill="#000000" font-family="sans-serif" font-size="7.14" lengthAdjust="spacing" textLength="84.66" x="415.65" y="99.6821">phone_number VARCHAR</text><text fill="#000000" font-family="sans-serif" font-size="7.14" lengthAdjust="spacing" textLength="61.71" x="415.65" y="109.1788">address VARCHAR</text><text fill="#000000" font-family="sans-serif" font-size="7.14" lengthAdjust="spacing" textLength="86.7" x="415.65" y="118.6756">plus_subscriber BOOLEAN</text></g><!--class Order--><g id="elem_Order"><rect codeLine="18" fill="#F1F1F1" height="60.7438" id="Order" rx="1.275" ry="1.275" style="stroke:#181818;stroke-width:0.255;" width="126.48" x="411.06" y="153.3168"/><text fill="#000000" font-family="sans-serif" font-size="7.14" lengthAdjust="spacing" textLength="18.87" x="464.865" y="163.5715">Order</text><line style="stroke:#181818;stroke-width:0.255;" x1="411.57" x2="537.03" y1="167.9135" y2="167.9135"/><text fill="#000000" font-family="sans-serif" font-size="7.14" lengthAdjust="spacing" textLength="120.36" x="414.12" y="177.6583">order_id UUID SERIAL PRIMARY KEY</text><line style="stroke:#181818;stroke-width:0.51;" x1="411.57" x2="537.03" y1="181.4903" y2="181.4903"/><text fill="#000000" font-family="sans-serif" font-size="7.14" lengthAdjust="spacing" textLength="83.13" x="414.12" y="191.2351">user_id (Foreign Key) INT</text><text fill="#000000" font-family="sans-serif" font-size="7.14" lengthAdjust="spacing" textLength="106.08" x="414.12" y="200.7318">order_state_id (Foreign Key) INT</text><text fill="#000000" font-family="sans-serif" font-size="7.14" lengthAdjust="spacing" textLength="84.66" x="414.12" y="210.2286">shop_id (Foreign Key) INT</text></g><!--class OrderState--><g id="elem_OrderState"><rect codeLine="27" fill="#F1F1F1" height="41.7503" id="OrderState" rx="1.275" ry="1.275" style="stroke:#181818;stroke-width:0.255;" width="146.37" x="246.585" y="162.7518"/><text fill="#000000" font-family="sans-serif" font-size="7.14" lengthAdjust="spacing" textLength="35.7" x="301.92" y="173.0065">OrderState</text><line style="stroke:#181818;stroke-width:0.255;" x1="247.095" x2="392.445" y1="177.3485" y2="177.3485"/><text fill="#000000" font-family="sans-serif" font-size="7.14" lengthAdjust="spacing" textLength="140.25" x="249.645" y="187.0933">order_state_id UUID SERIAL PRIMARY KEY</text><line style="stroke:#181818;stroke-width:0.51;" x1="247.095" x2="392.445" y1="190.9253" y2="190.9253"/><text fill="#000000" font-family="sans-serif" font-size="7.14" lengthAdjust="spacing" textLength="39.27" x="249.645" y="200.6701">status TEXT</text></g><path d="M3.06,174.2268 L3.06,188.1452 A0,0 0 0 0 3.06,188.1452 L228.48,188.1452 A0,0 0 0 0 228.48,188.1452 L228.48,183.4068 L248.625,197.7137 L228.48,179.3268 L228.48,179.3268 L223.38,174.2268 L3.06,174.2268 A0,0 0 0 0 3.06,174.2268 " fill="#FEFFDD" style="stroke:#181818;stroke-width:0.255;"/><path d="M223.38,174.2268 L223.38,179.3268 L228.48,179.3268 L223.38,174.2268 " fill="#FEFFDD" style="stroke:#181818;stroke-width:0.255;"/><text fill="#000000" font-family="sans-serif" font-size="6.63" lengthAdjust="spacing" textLength="214.71" x="6.12" y="183.9312">&#1054;&#1055;&#1051;&#1040;&#1063;&#1045;&#1053; | &#1057;&#1054;&#1041;&#1048;&#1056;&#1040;&#1045;&#1058;&#1057;&#1071; | &#1054;&#1058;&#1055;&#1056;&#1040;&#1042;&#1051;&#1045;&#1053; | &#1044;&#1054;&#1057;&#1058;&#1040;&#1042;&#1051;&#1045;&#1053; | &#1054;&#1058;&#1052;&#1045;&#1053;&#1025;&#1053;</text><!--class Shop--><g id="elem_Shop"><rect codeLine="36" fill="#F1F1F1" height="83.8173" id="Shop" rx="1.275" ry="1.275" style="stroke:#181818;stroke-width:0.255;" width="124.95" x="336.345" y="244.6068"/><text fill="#000000" font-family="sans-serif" font-size="7.14" lengthAdjust="spacing" textLength="16.83" x="390.405" y="254.8615">Shop</text><line style="stroke:#181818;stroke-width:0.255;" x1="336.855" x2="460.785" y1="259.2035" y2="259.2035"/><text fill="#000000" font-family="sans-serif" font-size="7.14" lengthAdjust="spacing" textLength="118.83" x="339.405" y="268.9483">shop_id UUID SERIAL PRIMARY KEY</text><line style="stroke:#181818;stroke-width:0.51;" x1="336.855" x2="460.785" y1="272.7803" y2="272.7803"/><text fill="#000000" font-family="sans-serif" font-size="7.14" lengthAdjust="spacing" textLength="53.55" x="339.405" y="282.5251">name VARCHAR</text><text fill="#000000" font-family="sans-serif" font-size="7.14" lengthAdjust="spacing" textLength="61.71" x="339.405" y="292.0218">address VARCHAR</text><text fill="#000000" font-family="sans-serif" font-size="7.14" lengthAdjust="spacing" textLength="52.53" x="339.405" y="301.5186">email VARCHAR</text><text fill="#000000" font-family="sans-serif" font-size="7.14" lengthAdjust="spacing" textLength="84.66" x="339.405" y="311.0153">phone_number VARCHAR</text><line style="stroke:#181818;stroke-width:0.51;" x1="336.855" x2="460.785" y1="314.8473" y2="314.8473"/><text fill="#000000" font-family="sans-serif" font-size="7.14" lengthAdjust="spacing" textLength="87.21" x="339.405" y="324.5921">rating_id (Foreign Key) INT</text></g><!--class ShopProduct--><g id="elem_ShopProduct"><rect codeLine="47" fill="#F1F1F1" height="64.8238" id="ShopProduct" rx="1.275" ry="1.275" style="stroke:#181818;stroke-width:0.255;" width="153.51" x="397.545" y="358.8468"/><text fill="#000000" font-family="sans-serif" font-size="7.14" lengthAdjust="spacing" textLength="41.82" x="453.39" y="369.1015">ShopProduct</text><line style="stroke:#181818;stroke-width:0.255;" x1="398.055" x2="550.545" y1="373.4435" y2="373.4435"/><text fill="#000000" font-family="sans-serif" font-size="7.14" lengthAdjust="spacing" textLength="147.39" x="400.605" y="383.1883">shop_product_id UUID SERIAL PRIMARY KEY</text><line style="stroke:#181818;stroke-width:0.51;" x1="398.055" x2="550.545" y1="387.0203" y2="387.0203"/><text fill="#000000" font-family="sans-serif" font-size="7.14" lengthAdjust="spacing" textLength="36.72" x="400.605" y="396.7651">amount INT</text><line style="stroke:#181818;stroke-width:0.51;" x1="398.055" x2="550.545" y1="400.597" y2="400.597"/><text fill="#000000" font-family="sans-serif" font-size="7.14" lengthAdjust="spacing" textLength="84.66" x="400.605" y="410.3418">shop_id (Foreign Key) INT</text><text fill="#000000" font-family="sans-serif" font-size="7.14" lengthAdjust="spacing" textLength="93.33" x="400.605" y="419.8386">product_id (Foreign Key) INT</text></g><!--class OrderUnit--><g id="elem_OrderUnit"><rect codeLine="56" fill="#F1F1F1" height="64.8238" id="OrderUnit" rx="1.275" ry="1.275" style="stroke:#181818;stroke-width:0.255;" width="142.29" x="479.145" y="254.0418"/><text fill="#000000" font-family="sans-serif" font-size="7.14" lengthAdjust="spacing" textLength="31.11" x="534.735" y="264.2965">OrderUnit</text><line style="stroke:#181818;stroke-width:0.255;" x1="479.655" x2="620.925" y1="268.6385" y2="268.6385"/><text fill="#000000" font-family="sans-serif" font-size="7.14" lengthAdjust="spacing" textLength="136.17" x="482.205" y="278.3833">order_unit_id UUID SERIAL PRIMARY KEY</text><line style="stroke:#181818;stroke-width:0.51;" x1="479.655" x2="620.925" y1="282.2153" y2="282.2153"/><text fill="#000000" font-family="sans-serif" font-size="7.14" lengthAdjust="spacing" textLength="36.72" x="482.205" y="291.9601">amount INT</text><line style="stroke:#181818;stroke-width:0.51;" x1="479.655" x2="620.925" y1="295.792" y2="295.792"/><text fill="#000000" font-family="sans-serif" font-size="7.14" lengthAdjust="spacing" textLength="86.19" x="482.205" y="305.5368">order_id (Foreign Key) INT</text><text fill="#000000" font-family="sans-serif" font-size="7.14" lengthAdjust="spacing" textLength="113.22" x="482.205" y="315.0336">shop_product_id (Foreign Key) INT</text></g><!--class Product--><g id="elem_Product"><rect codeLine="65" fill="#F1F1F1" height="83.8173" id="Product" rx="1.275" ry="1.275" style="stroke:#181818;stroke-width:0.255;" width="133.62" x="407.49" y="454.2168"/><text fill="#000000" font-family="sans-serif" font-size="7.14" lengthAdjust="spacing" textLength="24.99" x="461.805" y="464.4715">Product</text><line style="stroke:#181818;stroke-width:0.255;" x1="408" x2="540.6" y1="468.8135" y2="468.8135"/><text fill="#000000" font-family="sans-serif" font-size="7.14" lengthAdjust="spacing" textLength="127.5" x="410.55" y="478.5583">product_id UUID SERIAL PRIMARY KEY</text><line style="stroke:#181818;stroke-width:0.51;" x1="408" x2="540.6" y1="482.3903" y2="482.3903"/><text fill="#000000" font-family="sans-serif" font-size="7.14" lengthAdjust="spacing" textLength="53.55" x="410.55" y="492.1351">name VARCHAR</text><text fill="#000000" font-family="sans-serif" font-size="7.14" lengthAdjust="spacing" textLength="55.08" x="410.55" y="501.6318">description TEXT</text><text fill="#000000" font-family="sans-serif" font-size="7.14" lengthAdjust="spacing" textLength="48.96" x="410.55" y="511.1286">price NUMERIC</text><line style="stroke:#181818;stroke-width:0.51;" x1="408" x2="540.6" y1="514.9605" y2="514.9605"/><text fill="#000000" font-family="sans-serif" font-size="7.14" lengthAdjust="spacing" textLength="125.46" x="410.55" y="524.7053">product_category_id (Foreign Key) INT</text><text fill="#000000" font-family="sans-serif" font-size="7.14" lengthAdjust="spacing" textLength="87.21" x="410.55" y="534.2021">rating_id (Foreign Key) INT</text></g><!--class Category--><g id="elem_Category"><rect codeLine="76" fill="#F1F1F1" height="41.7503" id="Category" rx="1.275" ry="1.275" style="stroke:#181818;stroke-width:0.255;" width="137.19" x="559.215" y="475.1268"/><text fill="#000000" font-family="sans-serif" font-size="7.14" lengthAdjust="spacing" textLength="29.58" x="613.02" y="485.3815">Category</text><line style="stroke:#181818;stroke-width:0.255;" x1="559.725" x2="695.895" y1="489.7235" y2="489.7235"/><text fill="#000000" font-family="sans-serif" font-size="7.14" lengthAdjust="spacing" textLength="131.07" x="562.275" y="499.4683">category_id UUID SERIAL PRIMARY KEY</text><line style="stroke:#181818;stroke-width:0.51;" x1="559.725" x2="695.895" y1="503.3003" y2="503.3003"/><text fill="#000000" font-family="sans-serif" font-size="7.14" lengthAdjust="spacing" textLength="37.74" x="562.275" y="513.0451">name TEXT</text></g><!--class CategoryOption--><g id="elem_CategoryOption"><rect codeLine="82" fill="#F1F1F1" height="55.327" id="CategoryOption" rx="1.275" ry="1.275" style="stroke:#181818;stroke-width:0.255;" width="161.16" x="535.5" y="568.4568"/><text fill="#000000" font-family="sans-serif" font-size="7.14" lengthAdjust="spacing" textLength="51" x="590.58" y="578.7115">CategoryOption</text><line style="stroke:#181818;stroke-width:0.255;" x1="536.01" x2="696.15" y1="583.0535" y2="583.0535"/><text fill="#000000" font-family="sans-serif" font-size="7.14" lengthAdjust="spacing" textLength="155.04" x="538.56" y="592.7983">category_option_id UUID SERIAL PRIMARY KEY</text><line style="stroke:#181818;stroke-width:0.51;" x1="536.01" x2="696.15" y1="596.6303" y2="596.6303"/><text fill="#000000" font-family="sans-serif" font-size="7.14" lengthAdjust="spacing" textLength="37.74" x="538.56" y="606.3751">name TEXT</text><line style="stroke:#181818;stroke-width:0.51;" x1="536.01" x2="696.15" y1="610.207" y2="610.207"/><text fill="#000000" font-family="sans-serif" font-size="7.14" lengthAdjust="spacing" textLength="96.9" x="538.56" y="619.9518">category_id (Foreign Key) INT</text></g><!--class ProductOption--><g id="elem_ProductOption"><rect codeLine="90" fill="#F1F1F1" height="64.8238" id="ProductOption" rx="1.275" ry="1.275" style="stroke:#181818;stroke-width:0.255;" width="157.59" x="472.005" y="654.1368"/><text fill="#000000" font-family="sans-serif" font-size="7.14" lengthAdjust="spacing" textLength="46.41" x="527.595" y="664.3915">ProductOption</text><line style="stroke:#181818;stroke-width:0.255;" x1="472.515" x2="629.085" y1="668.7335" y2="668.7335"/><text fill="#000000" font-family="sans-serif" font-size="7.14" lengthAdjust="spacing" textLength="151.47" x="475.065" y="678.4783">product_option_id UUID SERIAL PRIMARY KEY</text><line style="stroke:#181818;stroke-width:0.51;" x1="472.515" x2="629.085" y1="682.3103" y2="682.3103"/><text fill="#000000" font-family="sans-serif" font-size="7.14" lengthAdjust="spacing" textLength="37.23" x="475.065" y="692.0551">value TEXT</text><line style="stroke:#181818;stroke-width:0.51;" x1="472.515" x2="629.085" y1="695.887" y2="695.887"/><text fill="#000000" font-family="sans-serif" font-size="7.14" lengthAdjust="spacing" textLength="93.33" x="475.065" y="705.6318">product_id (Foreign Key) INT</text><text fill="#000000" font-family="sans-serif" font-size="7.14" lengthAdjust="spacing" textLength="120.87" x="475.065" y="715.1286">category_option_id (Foreign Key) INT</text></g><!--class Rating--><g id="elem_Rating"><rect codeLine="99" fill="#F1F1F1" height="51.247" id="Rating" rx="1.275" ry="1.275" style="stroke:#181818;stroke-width:0.255;" width="127.5" x="262.14" y="470.5368"/><text fill="#000000" font-family="sans-serif" font-size="7.14" lengthAdjust="spacing" textLength="20.91" x="315.435" y="480.7915">Rating</text><line style="stroke:#181818;stroke-width:0.255;" x1="262.65" x2="389.13" y1="485.1335" y2="485.1335"/><text fill="#000000" font-family="sans-serif" font-size="7.14" lengthAdjust="spacing" textLength="121.38" x="265.2" y="494.8783">rating_id UUID SERIAL PRIMARY KEY</text><line style="stroke:#181818;stroke-width:0.51;" x1="262.65" x2="389.13" y1="498.7103" y2="498.7103"/><text fill="#000000" font-family="sans-serif" font-size="7.14" lengthAdjust="spacing" textLength="82.11" x="265.2" y="508.4551">rating_average NUMERIC</text><text fill="#000000" font-family="sans-serif" font-size="7.14" lengthAdjust="spacing" textLength="52.53" x="265.2" y="517.9518">rating_votes INT</text></g><!--link Product to Category--><g id="link_Product_Category"><path codeLine="106" d="M550.3665,496.0368 C556.2621,496.0368 548.9793,496.0368 554.8953,496.0368 " fill="none" id="Product-Category" style="stroke:#181818;stroke-width:0.51;"/><line style="stroke:#181818;stroke-width:0.51;" x1="545.2665" x2="541.1865" y1="496.0368" y2="499.0968"/><line style="stroke:#181818;stroke-width:0.51;" x1="545.2665" x2="541.1865" y1="496.0368" y2="492.9768"/><line style="stroke:#181818;stroke-width:0.51;" x1="545.2665" x2="541.1865" y1="496.0368" y2="496.0368"/><ellipse cx="548.3265" cy="496.0368" fill="none" rx="2.04" ry="2.04" style="stroke:#181818;stroke-width:0.51;"/><line style="stroke:#181818;stroke-width:0.51;" x1="556.9353" x2="556.9353" y1="493.9968" y2="498.0768"/><line style="stroke:#181818;stroke-width:0.51;" x1="555.4053" x2="555.4053" y1="493.9968" y2="498.0768"/><line style="stroke:#181818;stroke-width:0.51;" x1="554.8953" x2="558.9753" y1="496.0368" y2="496.0368"/></g><!--link Rating to Product--><g id="link_Rating_Product"><path codeLine="107" d="M393.771,496.0368 C399.6615,496.0368 392.3838,496.0368 398.3049,496.0368 " fill="none" id="Rating-Product" style="stroke:#181818;stroke-width:0.51;"/><line style="stroke:#181818;stroke-width:0.51;" x1="391.731" x2="391.731" y1="498.0768" y2="493.9968"/><line style="stroke:#181818;stroke-width:0.51;" x1="393.261" x2="393.261" y1="498.0768" y2="493.9968"/><line style="stroke:#181818;stroke-width:0.51;" x1="393.771" x2="389.691" y1="496.0368" y2="496.0368"/><line style="stroke:#181818;stroke-width:0.51;" x1="403.4049" x2="407.4849" y1="496.0368" y2="492.9768"/><line style="stroke:#181818;stroke-width:0.51;" x1="403.4049" x2="407.4849" y1="496.0368" y2="499.0968"/><line style="stroke:#181818;stroke-width:0.51;" x1="403.4049" x2="407.4849" y1="496.0368" y2="496.0368"/><ellipse cx="400.3449" cy="496.0368" fill="none" rx="2.04" ry="2.04" style="stroke:#181818;stroke-width:0.51;"/></g><!--link Category to CategoryOption--><g id="link_Category_CategoryOption"><path codeLine="108" d="M627.81,521.0727 C627.81,536.0157 627.81,542.9925 627.81,559.2462 " fill="none" id="Category-CategoryOption" style="stroke:#181818;stroke-width:0.51;"/><line style="stroke:#181818;stroke-width:0.51;" x1="625.77" x2="629.85" y1="519.0327" y2="519.0327"/><line style="stroke:#181818;stroke-width:0.51;" x1="625.77" x2="629.85" y1="520.5627" y2="520.5627"/><line style="stroke:#181818;stroke-width:0.51;" x1="627.81" x2="627.81" y1="521.0727" y2="516.9927"/><line style="stroke:#181818;stroke-width:0.51;" x1="627.81" x2="630.87" y1="564.3462" y2="568.4262"/><line style="stroke:#181818;stroke-width:0.51;" x1="627.81" x2="624.75" y1="564.3462" y2="568.4262"/><line style="stroke:#181818;stroke-width:0.51;" x1="627.81" x2="627.81" y1="564.3462" y2="568.4262"/><ellipse cx="627.81" cy="561.2862" fill="none" rx="2.04" ry="2.04" style="stroke:#181818;stroke-width:0.51;"/></g><!--link CategoryOption to ProductOption--><g id="link_CategoryOption_ProductOption"><path codeLine="109" d="M582.5475,627.729 C582.5475,637.3476 582.5475,634.9659 582.5475,644.9364 " fill="none" id="CategoryOption-ProductOption" style="stroke:#181818;stroke-width:0.51;"/><line style="stroke:#181818;stroke-width:0.51;" x1="580.5075" x2="584.5875" y1="625.689" y2="625.689"/><line style="stroke:#181818;stroke-width:0.51;" x1="580.5075" x2="584.5875" y1="627.219" y2="627.219"/><line style="stroke:#181818;stroke-width:0.51;" x1="582.5475" x2="582.5475" y1="627.729" y2="623.649"/><line style="stroke:#181818;stroke-width:0.51;" x1="582.5475" x2="585.6075" y1="650.0364" y2="654.1164"/><line style="stroke:#181818;stroke-width:0.51;" x1="582.5475" x2="579.4875" y1="650.0364" y2="654.1164"/><line style="stroke:#181818;stroke-width:0.51;" x1="582.5475" x2="582.5475" y1="650.0364" y2="654.1164"/><ellipse cx="582.5475" cy="646.9764" fill="none" rx="2.04" ry="2.04" style="stroke:#181818;stroke-width:0.51;"/></g><!--link ProductOption to Product--><g id="link_ProductOption_Product"><path codeLine="110" d="M503.7525,644.814 C503.7525,612.7758 503.7525,582.0585 503.7525,547.1133 " fill="none" id="ProductOption-Product" style="stroke:#181818;stroke-width:0.51;"/><line style="stroke:#181818;stroke-width:0.51;" x1="503.7525" x2="506.8125" y1="649.914" y2="653.994"/><line style="stroke:#181818;stroke-width:0.51;" x1="503.7525" x2="500.6925" y1="649.914" y2="653.994"/><line style="stroke:#181818;stroke-width:0.51;" x1="503.7525" x2="503.7525" y1="649.914" y2="653.994"/><ellipse cx="503.7525" cy="646.854" fill="none" rx="2.04" ry="2.04" style="stroke:#181818;stroke-width:0.51;"/><line style="stroke:#181818;stroke-width:0.51;" x1="503.7525" x2="500.6925" y1="542.0133" y2="537.9333"/><line style="stroke:#181818;stroke-width:0.51;" x1="503.7525" x2="506.8125" y1="542.0133" y2="537.9333"/><line style="stroke:#181818;stroke-width:0.51;" x1="503.7525" x2="503.7525" y1="542.0133" y2="537.9333"/><ellipse cx="503.7525" cy="545.0733" fill="none" rx="2.04" ry="2.04" style="stroke:#181818;stroke-width:0.51;"/></g><!--link Shop to ShopProduct--><g id="link_Shop_ShopProduct"><path codeLine="111" d="M429.42,332.3778 C429.42,342.5268 429.42,339.9666 429.42,349.6056 " fill="none" id="Shop-ShopProduct" style="stroke:#181818;stroke-width:0.51;"/><line style="stroke:#181818;stroke-width:0.51;" x1="427.38" x2="431.46" y1="330.3378" y2="330.3378"/><line style="stroke:#181818;stroke-width:0.51;" x1="427.38" x2="431.46" y1="331.8678" y2="331.8678"/><line style="stroke:#181818;stroke-width:0.51;" x1="429.42" x2="429.42" y1="332.3778" y2="328.2978"/><line style="stroke:#181818;stroke-width:0.51;" x1="429.42" x2="432.48" y1="354.7056" y2="358.7856"/><line style="stroke:#181818;stroke-width:0.51;" x1="429.42" x2="426.36" y1="354.7056" y2="358.7856"/><line style="stroke:#181818;stroke-width:0.51;" x1="429.42" x2="429.42" y1="354.7056" y2="358.7856"/><ellipse cx="429.42" cy="351.6456" fill="none" rx="2.04" ry="2.04" style="stroke:#181818;stroke-width:0.51;"/></g><!--link ShopProduct to Product--><g id="link_ShopProduct_Product"><path codeLine="112" d="M474.3,432.8529 C474.3,442.4715 474.3,439.8858 474.3,450.0195 " fill="none" id="ShopProduct-Product" style="stroke:#181818;stroke-width:0.51;"/><line style="stroke:#181818;stroke-width:0.51;" x1="474.3" x2="471.24" y1="427.7529" y2="423.6729"/><line style="stroke:#181818;stroke-width:0.51;" x1="474.3" x2="477.36" y1="427.7529" y2="423.6729"/><line style="stroke:#181818;stroke-width:0.51;" x1="474.3" x2="474.3" y1="427.7529" y2="423.6729"/><ellipse cx="474.3" cy="430.8129" fill="none" rx="2.04" ry="2.04" style="stroke:#181818;stroke-width:0.51;"/><line style="stroke:#181818;stroke-width:0.51;" x1="476.34" x2="472.26" y1="452.0595" y2="452.0595"/><line style="stroke:#181818;stroke-width:0.51;" x1="476.34" x2="472.26" y1="450.5295" y2="450.5295"/><line style="stroke:#181818;stroke-width:0.51;" x1="474.3" x2="474.3" y1="450.0195" y2="454.0995"/></g><!--link Order to Shop--><g id="link_Order_Shop"><path codeLine="113" d="M436.1775,223.2582 C436.1775,232.785 436.1775,230.2146 436.1775,240.3942 " fill="none" id="Order-Shop" style="stroke:#181818;stroke-width:0.51;"/><line style="stroke:#181818;stroke-width:0.51;" x1="436.1775" x2="433.1175" y1="218.1582" y2="214.0782"/><line style="stroke:#181818;stroke-width:0.51;" x1="436.1775" x2="439.2375" y1="218.1582" y2="214.0782"/><line style="stroke:#181818;stroke-width:0.51;" x1="436.1775" x2="436.1775" y1="218.1582" y2="214.0782"/><ellipse cx="436.1775" cy="221.2182" fill="none" rx="2.04" ry="2.04" style="stroke:#181818;stroke-width:0.51;"/><line style="stroke:#181818;stroke-width:0.51;" x1="438.2175" x2="434.1375" y1="242.4342" y2="242.4342"/><line style="stroke:#181818;stroke-width:0.51;" x1="438.2175" x2="434.1375" y1="240.9042" y2="240.9042"/><line style="stroke:#181818;stroke-width:0.51;" x1="436.1775" x2="436.1775" y1="240.3942" y2="244.4742"/></g><!--link User to Order--><g id="link_User_Order"><path codeLine="114" d="M474.3,126.8835 C474.3,137.2569 474.3,134.6457 474.3,144.0705 " fill="none" id="User-Order" style="stroke:#181818;stroke-width:0.51;"/><line style="stroke:#181818;stroke-width:0.51;" x1="472.26" x2="476.34" y1="124.8435" y2="124.8435"/><line style="stroke:#181818;stroke-width:0.51;" x1="472.26" x2="476.34" y1="126.3735" y2="126.3735"/><line style="stroke:#181818;stroke-width:0.51;" x1="474.3" x2="474.3" y1="126.8835" y2="122.8035"/><line style="stroke:#181818;stroke-width:0.51;" x1="474.3" x2="477.36" y1="149.1705" y2="153.2505"/><line style="stroke:#181818;stroke-width:0.51;" x1="474.3" x2="471.24" y1="149.1705" y2="153.2505"/><line style="stroke:#181818;stroke-width:0.51;" x1="474.3" x2="474.3" y1="149.1705" y2="153.2505"/><ellipse cx="474.3" cy="146.1105" fill="none" rx="2.04" ry="2.04" style="stroke:#181818;stroke-width:0.51;"/></g><!--link Order to OrderUnit--><g id="link_Order_OrderUnit"><path codeLine="115" d="M508.3425,218.1582 C508.3425,230.7042 508.3425,237.1047 508.3425,249.8598 " fill="none" id="Order-OrderUnit" style="stroke:#181818;stroke-width:0.51;"/><line style="stroke:#181818;stroke-width:0.51;" x1="506.3025" x2="510.3825" y1="216.1182" y2="216.1182"/><line style="stroke:#181818;stroke-width:0.51;" x1="506.3025" x2="510.3825" y1="217.6482" y2="217.6482"/><line style="stroke:#181818;stroke-width:0.51;" x1="508.3425" x2="508.3425" y1="218.1582" y2="214.0782"/><line style="stroke:#181818;stroke-width:0.51;" x1="508.3425" x2="511.4025" y1="249.8598" y2="253.9398"/><line style="stroke:#181818;stroke-width:0.51;" x1="508.3425" x2="505.2825" y1="249.8598" y2="253.9398"/><line style="stroke:#181818;stroke-width:0.51;" x1="508.3425" x2="508.3425" y1="249.8598" y2="253.9398"/><line style="stroke:#181818;stroke-width:0.51;" x1="510.3825" x2="506.3025" y1="248.8398" y2="248.8398"/></g><!--link OrderUnit to ShopProduct--><g id="link_OrderUnit_ShopProduct"><path codeLine="116" d="M515.1,328.0479 C515.1,340.7367 515.1,341.9964 515.1,354.6801 " fill="none" id="OrderUnit-ShopProduct" style="stroke:#181818;stroke-width:0.51;"/><line style="stroke:#181818;stroke-width:0.51;" x1="515.1" x2="512.04" y1="322.9479" y2="318.8679"/><line style="stroke:#181818;stroke-width:0.51;" x1="515.1" x2="518.16" y1="322.9479" y2="318.8679"/><line style="stroke:#181818;stroke-width:0.51;" x1="515.1" x2="515.1" y1="322.9479" y2="318.8679"/><ellipse cx="515.1" cy="326.0079" fill="none" rx="2.04" ry="2.04" style="stroke:#181818;stroke-width:0.51;"/><line style="stroke:#181818;stroke-width:0.51;" x1="517.14" x2="513.06" y1="356.7201" y2="356.7201"/><line style="stroke:#181818;stroke-width:0.51;" x1="517.14" x2="513.06" y1="355.1901" y2="355.1901"/><line style="stroke:#181818;stroke-width:0.51;" x1="515.1" x2="515.1" y1="354.6801" y2="358.7601"/></g><!--link OrderState to Order--><g id="link_OrderState_Order"><path codeLine="117" d="M397.0401,183.9168 C403.0479,183.9168 395.8263,183.9168 401.7576,183.9168 " fill="none" id="OrderState-Order" style="stroke:#181818;stroke-width:0.51;"/><line style="stroke:#181818;stroke-width:0.51;" x1="395.0001" x2="395.0001" y1="185.9568" y2="181.8768"/><line style="stroke:#181818;stroke-width:0.51;" x1="396.5301" x2="396.5301" y1="185.9568" y2="181.8768"/><line style="stroke:#181818;stroke-width:0.51;" x1="397.0401" x2="392.9601" y1="183.9168" y2="183.9168"/><line style="stroke:#181818;stroke-width:0.51;" x1="406.8576" x2="410.9376" y1="183.9168" y2="180.8568"/><line style="stroke:#181818;stroke-width:0.51;" x1="406.8576" x2="410.9376" y1="183.9168" y2="186.9768"/><line style="stroke:#181818;stroke-width:0.51;" x1="406.8576" x2="410.9376" y1="183.9168" y2="183.9168"/><ellipse cx="403.7976" cy="183.9168" fill="none" rx="2.04" ry="2.04" style="stroke:#181818;stroke-width:0.51;"/></g><!--SRC=[fLLBRjim5Dpp55os2rqWEzLr4SE9RSXnqQmCHM9ieZ8fa9G38pBGz0HjqG05ca_JJPVfeja4w1te6vNKbx9iGqQzakSDXpDyJvJ08a1GFig_yezyai-hAqlUoD-h3_9PFgq-0Z35Fe8UPbw007-FIUWoTmO3J91OX0XI9gOK04G45WiuueZ1Im3LBrAFO-p3qQZp6WxRJiS-WWEdSsmxfx3RFaqubbLGYJj3yAtjj0vj9m53b_CBodpOEkmExE4m0Mii7crOEQK4ZKaqErDcp8Bh-mnnNYK74H_pw8nx36l-gtx_g6ttmBB8r6T-4OhgvprIQUgBDvGXF26mYnOlOQTtOYXnuGgqdSIdDDnSLVOg_ePQg6Aoa6vWLNCZ3a_QxxGoeKegGES2qdD3_U0WfQaLyaxUo-_oa_mbh-KjZA5yKD1d-Kt-KE2r_Ad-FshuJZtU9-0NnS-uNnNye0eLK3Dlz1zv9MzLD1zg6qN8eJg9B5v-A0rorKPZqmIWcOk3PWEKoJ9NO3BPsXZ3ye1HF_A4wJnCeOO9t1cDY2W68k_Nrhb8x9SxxFANT7P4iAYCJQI0__9Ml28xHhgXm-hfxNTmjTRxIB_YeS2Kf8EUQc8FmTxeM6crpENvPfuQ_0bbY-s1cWr3AzF9ifYoJSDaR-UwOZ-DjAPB4tHlUGFSdRpMf8gD_FJsSZ5tWwXkO-UeR8cyowwJj2lpMVQkWR-CxCuHSoVLeSbAStLZyNo_V7YNr69uCXLM71SzCulwejMrr1We1YMEBOjUhhKPh7Kz8rLw0AeTKLiO591SfDaouuO2vcsbblZqWcXNUJdz26ej1MfkYKIXnlIN7vHNoZBEy0Go2wL4JJi_YlAR0_u1]--></g></svg>